%FSTAX23Y23*%
%MOIN*%
%SFA1B1*%

%IPPOS*%
%ADD13C,0.005000*%
%LNmain-1*%
%LPD*%
G54D13*
X00272Y0075D02*
X00296D01*
X00284Y00738D02*
Y00761D01*
X00272Y0041D02*
X00296D01*
X00284Y00398D02*
Y00421D01*
X00108Y0075D02*
X00131D01*
X0012Y00738D02*
Y00761D01*
X00108Y0041D02*
X00131D01*
X0012Y00398D02*
Y00421D01*
X00252Y00693D02*
X00277D01*
X00264Y00681D02*
Y00706D01*
X00252Y00466D02*
X00277D01*
X00264Y00453D02*
Y00479D01*
X01729Y00342D02*
X01768D01*
X01748Y00323D02*
Y00362D01*
X01729Y00087D02*
X01768D01*
X01748Y00067D02*
Y00106D01*
X00753Y00655D02*
X00796D01*
X00775Y00633D02*
Y00676D01*
X01551Y00342D02*
X0159D01*
X01571Y00323D02*
Y00362D01*
X01551Y00087D02*
X0159D01*
X01571Y00067D02*
Y00106D01*
X0235Y0145D02*
X0248D01*
X02415Y01385D02*
Y01515D01*
X02365Y00215D02*
X02495D01*
X0243Y0015D02*
Y0028D01*
X0017Y00175D02*
X003D01*
X00235Y0011D02*
Y0024D01*
X00125Y0148D02*
X00255D01*
X0019Y01415D02*
Y01545D01*
X00753Y00555D02*
X00796D01*
X00775Y00533D02*
Y00576D01*
X0143Y0078D02*
X0144D01*
X01435Y00775D02*
Y00785D01*
X016D02*
X0161D01*
X01605Y0078D02*
Y0079D01*
X005Y0051D02*
X0051D01*
X00505Y00505D02*
Y00515D01*
X01915Y01195D02*
X01925D01*
X0192Y0119D02*
Y012D01*
X01955Y0086D02*
X01965D01*
X0196Y00855D02*
Y00865D01*
X02155Y0117D02*
X02165D01*
X0216Y01165D02*
Y01175D01*
X0227Y00615D02*
X0228D01*
X02275Y0061D02*
Y0062D01*
X0107Y00495D02*
X0108D01*
X01075Y0049D02*
Y005D01*
X0118Y0084D02*
X0119D01*
X01185Y00835D02*
Y00845D01*
X01009Y0098D02*
X0102D01*
X01015Y00974D02*
Y00985D01*
X01179Y01035D02*
X0119D01*
X01185Y01029D02*
Y0104D01*
X01539Y0087D02*
X0155D01*
X01545Y00864D02*
Y00875D01*
X01276Y0099D02*
X01284D01*
X0128Y00986D02*
Y00994D01*
X01276Y01033D02*
X01284D01*
X0128Y01029D02*
Y01037D01*
X01276Y01076D02*
X01284D01*
X0128Y01072D02*
Y0108D01*
X01276Y0112D02*
X01284D01*
X0128Y01116D02*
Y01123D01*
X01276Y01163D02*
X01284D01*
X0128Y01159D02*
Y01167D01*
X01276Y01206D02*
X01284D01*
X0128Y01202D02*
Y0121D01*
X01276Y01249D02*
X01284D01*
X0128Y01245D02*
Y01253D01*
X01319Y0099D02*
X01327D01*
X01323Y00986D02*
Y00994D01*
X01319Y01033D02*
X01327D01*
X01323Y01029D02*
Y01037D01*
X01319Y01076D02*
X01327D01*
X01323Y01072D02*
Y0108D01*
X01319Y0112D02*
X01327D01*
X01323Y01116D02*
Y01123D01*
X01319Y01163D02*
X01327D01*
X01323Y01159D02*
Y01167D01*
X01319Y01206D02*
X01327D01*
X01323Y01202D02*
Y0121D01*
X01319Y01249D02*
X01327D01*
X01323Y01245D02*
Y01253D01*
X01362Y0099D02*
X0137D01*
X01366Y00986D02*
Y00994D01*
X01362Y01033D02*
X0137D01*
X01366Y01029D02*
Y01037D01*
X01362Y01076D02*
X0137D01*
X01366Y01072D02*
Y0108D01*
X01362Y0112D02*
X0137D01*
X01366Y01116D02*
Y01123D01*
X01362Y01163D02*
X0137D01*
X01366Y01159D02*
Y01167D01*
X01362Y01206D02*
X0137D01*
X01366Y01202D02*
Y0121D01*
X01362Y01249D02*
X0137D01*
X01366Y01245D02*
Y01253D01*
X01406Y0099D02*
X01413D01*
X0141Y00986D02*
Y00994D01*
X01406Y01033D02*
X01413D01*
X0141Y01029D02*
Y01037D01*
X01406Y01076D02*
X01413D01*
X0141Y01072D02*
Y0108D01*
X01406Y0112D02*
X01413D01*
X0141Y01116D02*
Y01123D01*
X01406Y01163D02*
X01413D01*
X0141Y01159D02*
Y01167D01*
X01406Y01206D02*
X01413D01*
X0141Y01202D02*
Y0121D01*
X01406Y01249D02*
X01413D01*
X0141Y01245D02*
Y01253D01*
X01449Y0099D02*
X01457D01*
X01453Y00986D02*
Y00994D01*
X01449Y01033D02*
X01457D01*
X01453Y01029D02*
Y01037D01*
X01449Y01076D02*
X01457D01*
X01453Y01072D02*
Y0108D01*
X01449Y0112D02*
X01457D01*
X01453Y01116D02*
Y01123D01*
X01449Y01163D02*
X01457D01*
X01453Y01159D02*
Y01167D01*
X01449Y01206D02*
X01457D01*
X01453Y01202D02*
Y0121D01*
X01449Y01249D02*
X01457D01*
X01453Y01245D02*
Y01253D01*
X01492Y0099D02*
X015D01*
X01496Y00986D02*
Y00994D01*
X01492Y01033D02*
X015D01*
X01496Y01029D02*
Y01037D01*
X01492Y01076D02*
X015D01*
X01496Y01072D02*
Y0108D01*
X01492Y0112D02*
X015D01*
X01496Y01116D02*
Y01123D01*
X01492Y01163D02*
X015D01*
X01496Y01159D02*
Y01167D01*
X01492Y01206D02*
X015D01*
X01496Y01202D02*
Y0121D01*
X01492Y01249D02*
X015D01*
X01496Y01245D02*
Y01253D01*
X01535Y0099D02*
X01543D01*
X01539Y00986D02*
Y00994D01*
X01535Y01033D02*
X01543D01*
X01539Y01029D02*
Y01037D01*
X01535Y01076D02*
X01543D01*
X01539Y01072D02*
Y0108D01*
X01535Y0112D02*
X01543D01*
X01539Y01116D02*
Y01123D01*
X01535Y01163D02*
X01543D01*
X01539Y01159D02*
Y01167D01*
X01535Y01206D02*
X01543D01*
X01539Y01202D02*
Y0121D01*
X01535Y01249D02*
X01543D01*
X01539Y01245D02*
Y01253D01*
X01479Y00775D02*
X0149D01*
X01485Y00769D02*
Y0078D01*
X01371Y00337D02*
X01383D01*
X01377Y00331D02*
Y00343D01*
X01139Y0141D02*
X0115D01*
X01145Y01404D02*
Y01415D01*
X01109Y0127D02*
X0112D01*
X01115Y01264D02*
Y01275D01*
X01114Y00935D02*
X01125D01*
X0112Y00929D02*
Y0094D01*
X01124Y0078D02*
X01135D01*
X0113Y00774D02*
Y00785D01*
X01439Y0074D02*
X0145D01*
X01445Y00734D02*
Y00745D01*
X01439Y00615D02*
X0145D01*
X01445Y00609D02*
Y0062D01*
X01584Y0088D02*
X01595D01*
X0159Y00874D02*
Y00885D01*
X01029Y01095D02*
X0104D01*
X01035Y01089D02*
Y011D01*
X01504Y0083D02*
X01515D01*
X0151Y00824D02*
Y00835D01*
X01224Y0074D02*
X01235D01*
X0123Y00734D02*
Y00745D01*
X00949Y00745D02*
X0096D01*
X00955Y00739D02*
Y0075D01*
X01414Y0081D02*
X01425D01*
X0142Y00804D02*
Y00815D01*
X01369Y00825D02*
X0138D01*
X01375Y00819D02*
Y0083D01*
X01029Y01145D02*
X0104D01*
X01035Y01139D02*
Y0115D01*
X01654Y00825D02*
X01665D01*
X0166Y00819D02*
Y0083D01*
X01864Y0038D02*
X01875D01*
X0187Y00374D02*
Y00385D01*
X01659Y00965D02*
X0167D01*
X01665Y00959D02*
Y0097D01*
X01944Y00425D02*
X01955D01*
X0195Y00419D02*
Y0043D01*
X01664Y011D02*
X01675D01*
X0167Y01094D02*
Y01105D01*
X01659Y01035D02*
X0167D01*
X01665Y01029D02*
Y0104D01*
X02009Y007D02*
X0202D01*
X02015Y00694D02*
Y00705D01*
X02084Y0068D02*
X02095D01*
X0209Y00674D02*
Y00685D01*
M02*