%FSTAX23Y23*%
%MOIN*%
%SFA1B1*%

%IPPOS*%
%AMD52*
4,1,8,-0.022300,0.012800,-0.022300,-0.012800,-0.014000,-0.021100,0.014000,-0.021100,0.022300,-0.012800,0.022300,0.012800,0.014000,0.021100,-0.014000,0.021100,-0.022300,0.012800,0.0*
1,1,0.016598,-0.014000,0.012800*
1,1,0.016598,-0.014000,-0.012800*
1,1,0.016598,0.014000,-0.012800*
1,1,0.016598,0.014000,0.012800*
%
%AMD53*
4,1,8,-0.015800,0.007400,-0.015800,-0.007400,-0.009400,-0.013800,0.009400,-0.013800,0.015800,-0.007400,0.015800,0.007400,0.009400,0.013800,-0.009400,0.013800,-0.015800,0.007400,0.0*
1,1,0.012921,-0.009400,0.007400*
1,1,0.012921,-0.009400,-0.007400*
1,1,0.012921,0.009400,-0.007400*
1,1,0.012921,0.009400,0.007400*
%
%AMD55*
4,1,8,0.030600,-0.010000,0.030600,0.010000,0.024800,0.015800,-0.024800,0.015800,-0.030600,0.010000,-0.030600,-0.010000,-0.024800,-0.015800,0.024800,-0.015800,0.030600,-0.010000,0.0*
1,1,0.011543,0.024800,-0.010000*
1,1,0.011543,0.024800,0.010000*
1,1,0.011543,-0.024800,0.010000*
1,1,0.011543,-0.024800,-0.010000*
%
%AMD67*
4,1,8,0.012800,0.022300,-0.012800,0.022300,-0.021100,0.014000,-0.021100,-0.014000,-0.012800,-0.022300,0.012800,-0.022300,0.021100,-0.014000,0.021100,0.014000,0.012800,0.022300,0.0*
1,1,0.016598,0.012800,0.014000*
1,1,0.016598,-0.012800,0.014000*
1,1,0.016598,-0.012800,-0.014000*
1,1,0.016598,0.012800,-0.014000*
%
%AMD68*
4,1,8,0.015800,-0.008000,0.015800,0.008000,0.009200,0.014600,-0.009200,0.014600,-0.015800,0.008000,-0.015800,-0.008000,-0.009200,-0.014600,0.009200,-0.014600,0.015800,-0.008000,0.0*
1,1,0.013346,0.009200,-0.008000*
1,1,0.013346,0.009200,0.008000*
1,1,0.013346,-0.009200,0.008000*
1,1,0.013346,-0.009200,-0.008000*
%
%AMD69*
4,1,8,0.007400,0.015800,-0.007400,0.015800,-0.013800,0.009400,-0.013800,-0.009400,-0.007400,-0.015800,0.007400,-0.015800,0.013800,-0.009400,0.013800,0.009400,0.007400,0.015800,0.0*
1,1,0.012921,0.007400,0.009400*
1,1,0.012921,-0.007400,0.009400*
1,1,0.012921,-0.007400,-0.009400*
1,1,0.012921,0.007400,-0.009400*
%
%AMD70*
4,1,8,-0.008000,-0.015800,0.008000,-0.015800,0.014600,-0.009200,0.014600,0.009200,0.008000,0.015800,-0.008000,0.015800,-0.014600,0.009200,-0.014600,-0.009200,-0.008000,-0.015800,0.0*
1,1,0.013346,-0.008000,-0.009200*
1,1,0.013346,0.008000,-0.009200*
1,1,0.013346,0.008000,0.009200*
1,1,0.013346,-0.008000,0.009200*
%
%ADD23R,0.037500X0.020000*%
%ADD47R,0.053275X0.019811*%
%ADD48R,0.053275X0.031622*%
%ADD49O,0.017842X0.039496*%
%ADD50O,0.039496X0.017842*%
%ADD51R,0.309180X0.309180*%
G04~CAMADD=52~8~0.0~0.0~422.8~446.5~83.0~0.0~15~0.0~0.0~0.0~0.0~0~0.0~0.0~0.0~0.0~0~0.0~0.0~0.0~90.0~446.0~423.0*
%ADD52D52*%
G04~CAMADD=53~8~0.0~0.0~276.9~316.2~64.6~0.0~15~0.0~0.0~0.0~0.0~0~0.0~0.0~0.0~0.0~0~0.0~0.0~0.0~90.0~316.0~276.0*
%ADD53D53*%
%ADD54R,0.043433X0.039496*%
G04~CAMADD=55~8~0.0~0.0~316.2~611.5~57.7~0.0~15~0.0~0.0~0.0~0.0~0~0.0~0.0~0.0~0.0~0~0.0~0.0~0.0~270.0~612.0~316.0*
%ADD55D55*%
%ADD56O,0.070992X0.031622*%
%ADD57R,0.095000X0.095000*%
%ADD58R,0.022000X0.042000*%
%ADD59R,0.042000X0.022000*%
%ADD60R,0.035559X0.035559*%
%ADD61R,0.065086X0.065086*%
%ADD62R,0.039496X0.023748*%
%ADD63R,0.023748X0.039496*%
%ADD64R,0.029260X0.031622*%
%ADD65R,0.086031X0.030031*%
%ADD66R,0.041464X0.027685*%
G04~CAMADD=67~8~0.0~0.0~422.8~446.5~83.0~0.0~15~0.0~0.0~0.0~0.0~0~0.0~0.0~0.0~0.0~0~0.0~0.0~0.0~0.0~422.8~446.5*
%ADD67D67*%
G04~CAMADD=68~8~0.0~0.0~292.9~316.5~66.7~0.0~15~0.0~0.0~0.0~0.0~0~0.0~0.0~0.0~0.0~0~0.0~0.0~0.0~270.0~316.0~292.0*
%ADD68D68*%
G04~CAMADD=69~8~0.0~0.0~276.9~316.2~64.6~0.0~15~0.0~0.0~0.0~0.0~0~0.0~0.0~0.0~0.0~0~0.0~0.0~0.0~0.0~276.9~316.2*
%ADD69D69*%
G04~CAMADD=70~8~0.0~0.0~292.9~316.5~66.7~0.0~15~0.0~0.0~0.0~0.0~0~0.0~0.0~0.0~0.0~0~0.0~0.0~0.0~180.0~292.0~316.0*
%ADD70D70*%
%ADD71R,0.056850X0.069449*%
%ADD72R,0.033197X0.036346*%
%ADD73R,0.042252X0.044614*%
%ADD74R,0.044614X0.042252*%
%ADD75R,0.048945X0.048157*%
%ADD76R,0.035559X0.043433*%
%ADD77O,0.090677X0.047370*%
%ADD78O,0.078866X0.047370*%
%ADD79C,0.033590*%
%ADD80C,0.066976*%
%ADD81C,0.071189*%
%ADD82R,0.066976X0.066976*%
%ADD83O,0.228000X0.237000*%
%ADD84R,0.071189X0.071189*%
%ADD85C,0.030047*%
%ADD86C,0.025716*%
%ADD87C,0.027685*%
%LNmain-1*%
%LPD*%
G36*
X021Y01067D02*
Y01132D01*
X02139*
X02165Y01106*
Y01067*
X021*
G37*
G54D23*
X01195Y00222D03*
X01094Y00185D03*
Y00222D03*
Y00147D03*
X01195D03*
G54D47*
X00306Y00589D03*
Y00609D03*
Y00629D03*
Y00648D03*
Y0057D03*
Y0055D03*
Y0053D03*
Y00511D03*
G54D48*
X00306Y00674D03*
Y00706D03*
Y00485D03*
Y00454D03*
G54D49*
X01262Y00945D03*
X01282D03*
X01301D03*
X01321D03*
X01341D03*
X0136D03*
X0138D03*
X014D03*
X01419D03*
X01439D03*
X01459D03*
X01478D03*
X01498D03*
X01518D03*
X01537D03*
X01557D03*
Y01294D03*
X01537D03*
X01518D03*
X01498D03*
X01478D03*
X01459D03*
X01439D03*
X01419D03*
X014D03*
X0138D03*
X0136D03*
X01341D03*
X01321D03*
X01301D03*
X01282D03*
X01262D03*
G54D50*
X01584Y00972D03*
Y00992D03*
Y01011D03*
Y01031D03*
Y01051D03*
Y0107D03*
Y0109D03*
Y0111D03*
Y01129D03*
Y01149D03*
Y01169D03*
Y01188D03*
Y01208D03*
Y01228D03*
Y01247D03*
Y01267D03*
X01235D03*
Y01247D03*
Y01228D03*
Y01208D03*
Y01188D03*
Y01169D03*
Y01149D03*
Y01129D03*
Y0111D03*
Y0109D03*
Y0107D03*
Y01051D03*
Y01031D03*
Y01011D03*
Y00992D03*
Y00972D03*
G54D51*
X0141Y0112D03*
G54D52*
X0141Y01414D03*
X01305Y0141D03*
X0112Y0069D03*
X01755Y00559D03*
X0184D03*
X0112Y00629D03*
X01035Y0069D03*
X0168Y0116D03*
X0063Y01275D03*
X01305Y01471D03*
X0141Y01475D03*
X0168Y01221D03*
X01755Y0062D03*
X0184D03*
X0063Y01214D03*
X01035Y00629D03*
G54D53*
X013Y00225D03*
Y00189D03*
X0095Y00184D03*
X00775Y00369D03*
X00475Y00365D03*
X0095Y0022D03*
X00775Y00405D03*
X00475Y0033D03*
G54D54*
X0105Y00842D03*
X00977Y009D03*
Y00842D03*
X0105Y009D03*
G54D55*
X00588Y00365D03*
Y00402D03*
Y00327D03*
X00681D03*
Y00402D03*
G54D56*
X0131Y00545D03*
X01593Y00695D03*
Y00645D03*
X0131Y00595D03*
X01593Y00545D03*
X0131Y00695D03*
Y00645D03*
X01593Y00595D03*
G54D57*
X0016Y0105D03*
G54D58*
X00173Y00974D03*
X00147D03*
X00122D03*
X00173Y01126D03*
X00147D03*
X00198Y00974D03*
Y01126D03*
X00122D03*
G54D59*
X00084Y01037D03*
Y01063D03*
Y01088D03*
Y01012D03*
X00236D03*
Y01037D03*
Y01063D03*
Y01088D03*
G54D60*
X02249Y01256D03*
X0186D03*
Y00787D03*
X02249D03*
G54D61*
X02055Y01022D03*
Y011D03*
X01977D03*
Y01022D03*
Y00944D03*
X02055D03*
X02132D03*
Y01022D03*
G54D62*
X02247Y01211D03*
Y01179D03*
Y01148D03*
Y01116D03*
Y01085D03*
Y01053D03*
Y01022D03*
Y0099D03*
Y00959D03*
Y00927D03*
Y00896D03*
Y00864D03*
Y00833D03*
X01862Y01148D03*
Y01211D03*
Y01179D03*
Y01116D03*
Y01085D03*
Y01053D03*
Y01022D03*
Y0099D03*
Y00959D03*
Y00927D03*
Y00896D03*
Y00864D03*
Y00833D03*
G54D63*
X01897Y01254D03*
X0218D03*
X02212D03*
X02149D03*
X02117D03*
X02086D03*
X02055D03*
X02023D03*
X01992D03*
X0196D03*
X01929D03*
X01897Y00789D03*
X01929D03*
X0196D03*
X01992D03*
X02023D03*
X02055D03*
X02086D03*
X02117D03*
X02149D03*
X0218D03*
X02212D03*
G54D64*
X00414Y00505D03*
X00424Y00625D03*
X0039D03*
X0038Y00505D03*
G54D65*
X00747Y01045D03*
Y01095D03*
X00933Y01195D03*
X00747D03*
X00933Y01145D03*
Y01095D03*
Y01045D03*
X00747Y01145D03*
G54D66*
X02209Y00175D03*
X0214Y00214D03*
X02209D03*
X0214Y00175D03*
G54D67*
X01498Y01395D03*
X00215Y01305D03*
X0224Y0137D03*
X02178D03*
X0156Y01395D03*
X00154Y01305D03*
G54D68*
X0043Y01204D03*
Y0117D03*
G54D69*
X0193Y0137D03*
X0018Y0121D03*
X00144D03*
X01965Y0137D03*
G54D70*
X00399Y0104D03*
X00365D03*
G54D71*
X00409Y0093D03*
X0034D03*
G54D72*
X02215Y0144D03*
X0218D03*
G54D73*
X021Y01375D03*
X0136Y00085D03*
X01421D03*
X02039Y01375D03*
G54D74*
X0175Y00799D03*
X0095Y00625D03*
Y00686D03*
X0175Y0086D03*
G54D75*
X01962Y00135D03*
X0202D03*
X01967Y00265D03*
X02025D03*
G54D76*
X00395Y0111D03*
X00344D03*
G54D77*
X00284Y0075D03*
Y0041D03*
G54D78*
X0012Y0075D03*
Y0041D03*
G54D79*
X00264Y00693D03*
Y00466D03*
G54D80*
X01748Y00342D03*
Y00087D03*
X01571Y00342D03*
G54D81*
X00775Y00655D03*
G54D82*
X01571Y00087D03*
G54D83*
X02415Y0145D03*
X0243Y00215D03*
X00235Y00175D03*
X0019Y0148D03*
G54D84*
X00775Y00555D03*
G54D85*
X01435Y0078D03*
X01605Y00785D03*
X00505Y0051D03*
X0192Y01195D03*
X0196Y0086D03*
X0216Y0117D03*
X02275Y00615D03*
X01075Y00495D03*
X01185Y0084D03*
G54D86*
X01015Y0098D03*
X01185Y01035D03*
X01545Y0087D03*
X01485Y00775D03*
X01377Y00337D03*
X01145Y0141D03*
X01115Y0127D03*
X0112Y00935D03*
X0113Y0078D03*
X01445Y0074D03*
Y00615D03*
X0159Y0088D03*
X01035Y01095D03*
X0151Y0083D03*
X0123Y0074D03*
X00955Y00745D03*
X0142Y0081D03*
X01375Y00825D03*
X01035Y01145D03*
X0166Y00825D03*
X0187Y0038D03*
X01665Y00965D03*
X0195Y00425D03*
X0167Y011D03*
X01665Y01035D03*
X02015Y007D03*
X0209Y0068D03*
G54D87*
X0128Y0099D03*
Y01033D03*
Y01076D03*
Y0112D03*
Y01163D03*
Y01206D03*
Y01249D03*
X01323Y0099D03*
Y01033D03*
Y01076D03*
Y0112D03*
Y01163D03*
Y01206D03*
Y01249D03*
X01366Y0099D03*
Y01033D03*
Y01076D03*
Y0112D03*
Y01163D03*
Y01206D03*
Y01249D03*
X0141Y0099D03*
Y01033D03*
Y01076D03*
Y0112D03*
Y01163D03*
Y01206D03*
Y01249D03*
X01453Y0099D03*
Y01033D03*
Y01076D03*
Y0112D03*
Y01163D03*
Y01206D03*
Y01249D03*
X01496Y0099D03*
Y01033D03*
Y01076D03*
Y0112D03*
Y01163D03*
Y01206D03*
Y01249D03*
X01539Y0099D03*
Y01033D03*
Y01076D03*
Y0112D03*
Y01163D03*
Y01206D03*
Y01249D03*
M02*