%FSTAX23Y23*%
%MOIN*%
%SFA1B1*%

%IPPOS*%
%ADD14C,0.006000*%
%ADD102C,0.003937*%
%ADD105C,0.001969*%
%ADD106C,0.002000*%
%LNmain-1*%
%LPD*%
G36*
X01186Y00118D02*
X01103D01*
Y00132*
X0107*
Y00237*
X01103*
Y00252*
X01186*
Y00237*
X0122*
Y00132*
X01186*
Y00118*
G37*
G54D14*
X01103Y00118D02*
Y00132D01*
X0107D02*
X01103D01*
X0107D02*
Y00237D01*
X01103*
Y00252*
X01186*
Y00237D02*
Y00252D01*
Y00237D02*
X0122D01*
Y00132D02*
Y00237D01*
X01186Y00132D02*
X0122D01*
X01186Y00118D02*
Y00132D01*
X01103Y00118D02*
X01186D01*
G54D102*
X0141Y011D02*
Y01139D01*
X0139Y0112D02*
X01429D01*
G54D105*
X00007Y00779D02*
X00339D01*
X00007Y0038D02*
Y00779D01*
Y0038D02*
X00339D01*
Y00779*
X0121Y0092D02*
X01609D01*
X0121Y01319D02*
X01609D01*
X0121Y0092D02*
Y01319D01*
X01609Y0092D02*
Y01319D01*
X01381Y01502D02*
X01438D01*
X01381Y01387D02*
X01438D01*
X01381D02*
Y01502D01*
X01438Y01387D02*
Y01502D01*
X01276Y01498D02*
X01333D01*
X01276Y01383D02*
X01333D01*
X01276D02*
Y01498D01*
X01333Y01383D02*
Y01498D01*
X01651Y01248D02*
X01708D01*
X01651Y01133D02*
X01708D01*
X01651D02*
Y01248D01*
X01708Y01133D02*
Y01248D01*
X01811Y00647D02*
X01868D01*
X01811Y00532D02*
X01868D01*
X01811D02*
Y00647D01*
X01868Y00532D02*
Y00647D01*
X01091Y00717D02*
X01148D01*
X01091Y00602D02*
X01148D01*
X01091D02*
Y00717D01*
X01148Y00602D02*
Y00717D01*
X01006Y00602D02*
X01063D01*
X01006Y00717D02*
X01063D01*
Y00602D02*
Y00717D01*
X01006Y00602D02*
Y00717D01*
X00949Y00817D02*
Y00925D01*
Y00817D02*
X01077D01*
Y00925*
X00949D02*
X01077D01*
X00921Y00598D02*
X00978D01*
X00921Y00713D02*
X00978D01*
Y00598D02*
Y00713D01*
X00921Y00598D02*
Y00713D01*
X01931Y00105D02*
X0205D01*
X01931Y00164D02*
X0205D01*
X01931Y00105D02*
Y00164D01*
X0205Y00105D02*
Y00164D01*
X02113Y00153D02*
Y00236D01*
Y00153D02*
X02236D01*
Y00236*
X02113D02*
X02236D01*
X01721Y00887D02*
X01778D01*
X01721Y00772D02*
X01778D01*
X01721D02*
Y00887D01*
X01778Y00772D02*
Y00887D01*
X02158Y01463D02*
X02237D01*
X02158Y01416D02*
X02237D01*
Y01463*
X02158Y01416D02*
Y01463D01*
X02151Y01341D02*
Y01398D01*
X02266Y01341D02*
Y01398D01*
X02151Y01341D02*
X02266D01*
X02151Y01398D02*
X02266D01*
X0191Y01391D02*
X01985D01*
Y01348D02*
Y01391D01*
X0191Y01348D02*
X01985D01*
X0191D02*
Y01391D01*
X01824Y01291D02*
X02497D01*
X01824Y00752D02*
Y01291D01*
Y00752D02*
X02497D01*
Y01291*
X02127Y01346D02*
Y01403D01*
X02012Y01346D02*
Y01403D01*
X02127*
X02012Y01346D02*
X02127D01*
X01333Y00056D02*
Y00113D01*
X01448Y00056D02*
Y00113D01*
X01333Y00056D02*
X01448D01*
X01333Y00113D02*
X01448D01*
X01726Y00647D02*
X01783D01*
X01726Y00532D02*
X01783D01*
X01726D02*
Y00647D01*
X01783Y00532D02*
Y00647D01*
X00753Y00349D02*
Y00424D01*
X00796*
Y00349D02*
Y00424D01*
X00753Y00349D02*
X00796D01*
X00496Y0031D02*
Y00385D01*
X00453Y0031D02*
X00496D01*
X00453D02*
Y00385D01*
X00496*
X00591Y00435D02*
X00678D01*
X00591Y00424D02*
Y00435D01*
X00551Y00424D02*
X00591D01*
X00551Y00305D02*
Y00424D01*
Y00305D02*
X00591D01*
Y00294D02*
Y00305D01*
Y00294D02*
X00678D01*
Y00305*
X00718*
Y00424*
X00678D02*
X00718D01*
X00678D02*
Y00435D01*
X00833Y00495D02*
Y00714D01*
X00716D02*
X00833D01*
X00716Y00495D02*
Y00714D01*
Y00495D02*
X00833D01*
X00601Y01187D02*
X00658D01*
X00601Y01302D02*
X00658D01*
Y01187D02*
Y01302D01*
X00601Y01187D02*
Y01302D01*
X00305Y00889D02*
Y0097D01*
X00443Y00889D02*
Y0097D01*
X00305Y00889D02*
X00443D01*
X00305Y0097D02*
X00443D01*
X00344Y01061D02*
X00419D01*
X00344Y01018D02*
X00419D01*
Y01061*
X00344Y01018D02*
Y01061D01*
X00408Y01149D02*
Y01224D01*
X00451Y01149D02*
Y01224D01*
X00408D02*
X00451D01*
X00408Y01149D02*
X00451D01*
X00127Y01276D02*
Y01333D01*
X00242Y01276D02*
Y01333D01*
X00127Y01276D02*
X00242D01*
X00127Y01333D02*
X00242D01*
X00124Y01188D02*
X00199D01*
X00124D02*
Y01231D01*
X00199*
Y01188D02*
Y01231D01*
X00928Y00164D02*
Y00239D01*
X00971*
Y00164D02*
Y00239D01*
X00928Y00164D02*
X00971D01*
X00369Y00646D02*
X00444D01*
X00369Y00603D02*
X00444D01*
Y00646*
X00369Y00603D02*
Y00646D01*
X00359Y00526D02*
X00434D01*
X00359Y00483D02*
X00434D01*
Y00526*
X00359Y00483D02*
Y00526D01*
X01586Y01366D02*
Y01423D01*
X01471Y01366D02*
Y01423D01*
X01586*
X01471Y01366D02*
X01586D01*
X01936Y00235D02*
X02055D01*
X01936Y00294D02*
X02055D01*
X01936Y00235D02*
Y00294D01*
X02055Y00235D02*
Y00294D01*
X01268Y00736D02*
X01634D01*
Y00503D02*
Y00736D01*
X01268Y00503D02*
X01634D01*
X01268D02*
Y00736D01*
X01532Y00047D02*
X01787D01*
Y00382*
X01532D02*
X01787D01*
X01532Y00047D02*
Y00382D01*
X01278Y00169D02*
Y00244D01*
X01321*
Y00169D02*
Y00244D01*
X01278Y00169D02*
X01321D01*
G54D106*
X00323Y01085D02*
X00416D01*
X00323D02*
Y01134D01*
X00416*
Y01085D02*
Y01134D01*
M02*