%FSTAX23Y23*%
%MOIN*%
%SFA1B1*%

%IPPOS*%
%ADD10C,0.007874*%
%ADD89C,0.015748*%
%ADD90C,0.010000*%
%ADD91O,0.082677X0.039370*%
%ADD92O,0.070866X0.039370*%
%ADD93C,0.025591*%
%ADD94C,0.058976*%
%ADD95C,0.063189*%
%ADD96R,0.058976X0.058976*%
%ADD97O,0.220000X0.229000*%
%ADD98R,0.063189X0.063189*%
%ADD99C,0.022047*%
%ADD100C,0.017716*%
%ADD101C,0.019685*%
%LNmain-1*%
%LPD*%
G36*
X02449Y01575D02*
X02445Y01568D01*
X02433Y01571*
X02415Y01572*
X02396Y01571*
X02378Y01566*
X02361Y01559*
X02345Y0155*
X02331Y01538*
X02319Y01524*
X02309Y01508*
X02302Y01491*
X02298Y01472*
X02296Y01454*
Y01445*
X02298Y01427*
X02302Y01408*
X02309Y01391*
X02319Y01376*
X02331Y01361*
X02345Y01349*
X02361Y0134*
X02378Y01333*
X02396Y01328*
X02415Y01327*
X02433Y01328*
X02451Y01333*
X02468Y0134*
X02484Y01349*
X02498Y01361*
X0251Y01376*
X0252Y01391*
X02527Y01408*
X02531Y01427*
X02532Y01431*
X0254Y01431*
Y0028*
X02532Y00278*
X02525Y00289*
X02513Y00303*
X02499Y00315*
X02483Y00324*
X02466Y00331*
X02448Y00336*
X0243Y00337*
X02411Y00336*
X02393Y00331*
X02376Y00324*
X0236Y00315*
X02346Y00303*
X02334Y00289*
X02324Y00273*
X02317Y00256*
X02313Y00237*
X02311Y00219*
Y0021*
X02313Y00192*
X02317Y00173*
X02324Y00156*
X02334Y00141*
X02346Y00126*
X0236Y00114*
X02376Y00105*
X02393Y00098*
X02411Y00093*
X0243Y00092*
X02448Y00093*
X02466Y00098*
X02483Y00105*
X02499Y00114*
X02513Y00126*
X02525Y00141*
X02532Y00151*
X0254Y00149*
Y00075*
X0247Y00005*
X0007*
X00015Y0006*
Y0151*
X00094Y01589*
X001Y01595*
X00129*
X00131Y01587*
X0012Y0158*
X00106Y01568*
X00094Y01554*
X00084Y01538*
X00077Y01521*
X00073Y01502*
X00071Y01484*
Y01475*
X00073Y01457*
X00077Y01438*
X00084Y01421*
X00094Y01406*
X00106Y01391*
X0012Y01379*
X00136Y0137*
X00153Y01363*
X00171Y01358*
X0019Y01357*
X00208Y01358*
X00226Y01363*
X00243Y0137*
X00259Y01379*
X00273Y01391*
X00285Y01406*
X00295Y01421*
X00302Y01438*
X00306Y01457*
X00308Y01475*
Y01484*
X00306Y01502*
X00302Y01521*
X00295Y01538*
X00285Y01554*
X00273Y01568*
X00259Y0158*
X00248Y01587*
X0025Y01595*
X0243*
X02449Y01575*
G37*
%LNmain-2*%
%LPC*%
G36*
X01534Y01269D02*
X01528Y01266D01*
X01523Y01261*
X01522Y01259*
X01514*
X01513Y01261*
X01507Y01266*
X01501Y01269*
Y01249*
X01491*
Y01269*
X01485Y01266*
X01479Y01261*
X01479Y01259*
X0147*
X0147Y01261*
X01464Y01266*
X01458Y01269*
Y01249*
X01448*
Y01269*
X01442Y01266*
X01436Y01261*
X01435Y01259*
X01427*
X01426Y01261*
X01421Y01266*
X01415Y01269*
Y01249*
X01405*
Y01269*
X01398Y01266*
X01393Y01261*
X01392Y01259*
X01384*
X01383Y01261*
X01377Y01266*
X01371Y01269*
Y01249*
X01361*
Y01269*
X01355Y01266*
X01349Y01261*
X01349Y01259*
X0134*
X0134Y01261*
X01334Y01266*
X01328Y01269*
Y01249*
X01318*
Y01269*
X01312Y01266*
X01306Y01261*
X01305Y01259*
X01297*
X01296Y01261*
X01291Y01266*
X01285Y01269*
Y01249*
X0128*
Y01244*
X0126*
X01263Y01238*
X01268Y01233*
X0127Y01232*
Y01224*
X01268Y01223*
X01263Y01217*
X0126Y01211*
X0128*
Y01201*
X0126*
X01263Y01195*
X01268Y01189*
X0127Y01189*
Y0118*
X01268Y0118*
X01263Y01174*
X0126Y01168*
X0128*
Y01158*
X0126*
X01263Y01152*
X01268Y01146*
X0127Y01145*
Y01137*
X01268Y01136*
X01263Y01131*
X0126Y01125*
X0128*
Y01115*
X0126*
X01263Y01108*
X01268Y01103*
X0127Y01102*
Y01094*
X01268Y01093*
X01263Y01087*
X0126Y01081*
X0128*
Y01071*
X0126*
X01263Y01065*
X01268Y01059*
X0127Y01059*
Y0105*
X01268Y0105*
X01263Y01044*
X0126Y01038*
X0128*
Y01028*
X0126*
X01263Y01022*
X01268Y01016*
X0127Y01015*
Y01007*
X01268Y01006*
X01263Y01001*
X0126Y00995*
X0128*
Y0099*
X01285*
Y0097*
X01291Y00973*
X01296Y00978*
X01297Y0098*
X01305*
X01306Y00978*
X01312Y00973*
X01318Y0097*
Y0099*
X01328*
Y0097*
X01334Y00973*
X0134Y00978*
X0134Y0098*
X01349*
X01349Y00978*
X01355Y00973*
X01361Y0097*
Y0099*
X01371*
Y0097*
X01377Y00973*
X01383Y00978*
X01384Y0098*
X01392*
X01393Y00978*
X01398Y00973*
X01405Y0097*
Y0099*
X01415*
Y0097*
X01421Y00973*
X01426Y00978*
X01427Y0098*
X01435*
X01436Y00978*
X01442Y00973*
X01448Y0097*
Y0099*
X01458*
Y0097*
X01464Y00973*
X0147Y00978*
X0147Y0098*
X01479*
X01479Y00978*
X01485Y00973*
X01491Y0097*
Y0099*
X01501*
Y0097*
X01507Y00973*
X01513Y00978*
X01514Y0098*
X01522*
X01523Y00978*
X01528Y00973*
X01534Y0097*
Y0099*
X01539*
Y00995*
X01559*
X01556Y01001*
X01551Y01006*
X01549Y01007*
Y01015*
X01551Y01016*
X01556Y01022*
X01559Y01028*
X01539*
Y01038*
X01559*
X01556Y01044*
X01551Y0105*
X01549Y0105*
Y01059*
X01551Y01059*
X01556Y01065*
X01559Y01071*
X01539*
Y01081*
X01559*
X01556Y01087*
X01551Y01093*
X01549Y01094*
Y01102*
X01551Y01103*
X01556Y01108*
X01559Y01115*
X01539*
Y01125*
X01559*
X01556Y01131*
X01551Y01136*
X01549Y01137*
Y01145*
X01551Y01146*
X01556Y01152*
X01559Y01158*
X01539*
Y01168*
X01559*
X01556Y01174*
X01551Y0118*
X01549Y0118*
Y01189*
X01551Y01189*
X01556Y01195*
X01559Y01201*
X01539*
Y01211*
X01559*
X01556Y01217*
X01551Y01223*
X01549Y01224*
Y01232*
X01551Y01233*
X01556Y01238*
X01559Y01244*
X01539*
Y01249*
X01534*
Y01269*
G37*
G36*
X01544D02*
Y01254D01*
X01559*
X01556Y01261*
X01551Y01266*
X01544Y01269*
G37*
G36*
X01275D02*
X01268Y01266D01*
X01263Y01261*
X0126Y01254*
X01275*
Y01269*
G37*
G36*
X01925Y01215D02*
Y012D01*
X0194*
X01937Y01206*
X01931Y01212*
X01925Y01215*
G37*
G36*
X01915D02*
X01908Y01212D01*
X01902Y01206*
X01899Y012*
X01915*
Y01215*
G37*
G36*
X02165Y0119D02*
Y01175D01*
X0218*
X02177Y01181*
X02171Y01187*
X02165Y0119*
G37*
G36*
X02155D02*
X02148Y01187D01*
X02142Y01181*
X02139Y01175*
X02155*
Y0119*
G37*
G36*
X0194Y0119D02*
X01925D01*
Y01174*
X01931Y01177*
X01937Y01183*
X0194Y0119*
G37*
G36*
X01915D02*
X01899D01*
X01902Y01183*
X01908Y01177*
X01915Y01174*
Y0119*
G37*
G36*
X0218Y01165D02*
X02165D01*
Y01149*
X02171Y01152*
X02177Y01158*
X0218Y01165*
G37*
G36*
X02155D02*
X02139D01*
X02142Y01158*
X02148Y01152*
X02155Y01149*
Y01165*
G37*
G36*
X01559Y00985D02*
X01544D01*
Y0097*
X01551Y00973*
X01556Y00978*
X01559Y00985*
G37*
G36*
X01148Y01426D02*
X01141D01*
X01135Y01424*
X0113Y01419*
X0113Y01417*
X01103Y01391*
X011Y01386*
X01098Y0138*
Y01276*
X00999Y01176*
X00995Y01171*
X00994Y01165*
Y0107*
Y00985*
X00995Y00978*
X00999Y00973*
X00999Y00973*
X01Y0097*
X01005Y00965*
X01011Y00963*
X01018*
X01024Y00965*
X01029Y0097*
X01031Y00976*
Y00983*
X01029Y00989*
X01026Y00992*
Y0107*
Y01074*
X01027Y01075*
X01034Y01077*
X01273Y00837*
X01278Y00834*
X01283Y00833*
X01294*
X01297Y00826*
X01228Y00756*
X01226*
X0122Y00754*
X01215Y00749*
X01213Y00743*
Y00736*
X01215Y0073*
X0122Y00725*
X01226Y00723*
X01233*
X01239Y00725*
X01244Y0073*
X01246Y00736*
Y00738*
X0132Y00811*
X01364*
X01365Y0081*
X01371Y00808*
X01378*
X01384Y0081*
X01389Y00815*
X01391Y00821*
Y00828*
X01395Y00833*
X01412*
X01414Y00825*
X0141Y00824*
X01405Y00819*
X01403Y00813*
Y00811*
X01302Y00711*
X01197*
X01154Y00754*
X0115Y00757*
X01145Y00758*
X01141*
X01139Y00764*
X01139Y00766*
X01144Y0077*
X01146Y00776*
Y00783*
X01144Y00789*
X01139Y00794*
X01134Y00796*
X01133Y00797*
Y00924*
X01134Y00925*
X01136Y00931*
Y00938*
X01134Y00944*
X01129Y00949*
X01123Y00951*
X01116*
X0111Y00949*
X01105Y00944*
X01103Y00938*
Y00931*
X01105Y00925*
X01106Y00924*
Y00792*
X01107Y00787*
X0111Y00782*
X01113Y0078*
Y00776*
X01115Y0077*
X0112Y00766*
X0112Y00764*
X01118Y00758*
X00965*
X00964Y00759*
X00958Y00761*
X00951*
X00945Y00759*
X0094Y00754*
X00938Y00748*
Y00741*
X0094Y00735*
X00945Y0073*
X00951Y00728*
X00958*
X00964Y0073*
X00965Y00731*
X01139*
X01182Y00688*
X01186Y00686*
X01191Y00685*
X01308*
X01313Y00686*
X01317Y00688*
X01406Y00777*
X01409Y00776*
X01414Y00774*
X01417Y00768*
X01423Y00762*
X01429Y00759*
X01431Y00754*
X01432Y00751*
X0143Y00749*
X01428Y00743*
Y00736*
X0143Y0073*
X01431Y00729*
Y00625*
X0143Y00624*
X01428Y00618*
Y00611*
X0143Y00605*
X01435Y006*
X01441Y00598*
X01448*
X01454Y006*
X01459Y00605*
X01461Y00611*
Y00618*
X01459Y00624*
X01458Y00625*
Y00729*
X01459Y0073*
X01461Y00736*
Y00743*
X01459Y00749*
X01454Y00754*
X0145Y00755*
X0145Y00756*
X01448Y00763*
X01449Y00764*
X01452Y00768*
X01455Y00775*
X01435*
Y00785*
X01455*
X01452Y00791*
X01446Y00797*
X01439Y00801*
X01436Y00805*
X01436Y00806*
Y00813*
X01434Y00819*
X01429Y00824*
X01425Y00825*
X01427Y00833*
X01487*
X01493Y00827*
Y00826*
X01495Y0082*
X015Y00815*
X01506Y00813*
X01513*
X01519Y00815*
X01524Y0082*
X01526Y00826*
Y00833*
X01524Y00839*
X01519Y00844*
X01516Y00845*
X01514Y00849*
X01518Y00856*
X01518Y00856*
X01534*
X01535Y00855*
X01541Y00853*
X01548*
X01554Y00855*
X01559Y0086*
X0156Y00862*
X01563Y00867*
X01569Y00868*
X0157Y00867*
X01578*
X0158Y00865*
X01586Y00863*
X01593*
X01599Y00865*
X01604Y0087*
X01606Y00876*
Y00883*
X01604Y00889*
X01599Y00894*
X01593Y00896*
X01586*
X0158Y00894*
X01578Y00892*
X01574*
X01563Y00903*
X01559Y00906*
X01555Y00907*
X01314*
X0126Y00961*
Y0097*
X01263Y00972*
X01268Y00974*
X01268Y00973*
X01275Y0097*
Y00985*
X01255*
X01255Y00984*
X01252Y00984*
X01201Y01035*
Y01038*
X01199Y01044*
X01194Y01049*
X01188Y01051*
X01181*
X01175Y01049*
X0117Y01044*
X01169Y0104*
X01162Y01038*
X0116Y01038*
X01051Y01146*
Y01148*
X01049Y01154*
X01044Y01159*
X01039Y01161*
X01037Y01166*
X01037Y01169*
X01122Y01255*
X01124Y01255*
X01129Y0126*
X01131Y01266*
Y01273*
X01131Y01274*
Y01373*
X01152Y01395*
X01154Y01395*
X01159Y014*
X01161Y01406*
Y01413*
X01159Y01419*
X01154Y01424*
X01148Y01426*
G37*
G36*
X01965Y0088D02*
Y00865D01*
X0198*
X01977Y00871*
X01971Y00877*
X01965Y0088*
G37*
G36*
X0119Y0086D02*
Y00845D01*
X01205*
X01202Y00851*
X01196Y00857*
X0119Y0086*
G37*
G36*
X0118D02*
X01173Y00857D01*
X01167Y00851*
X01164Y00845*
X0118*
Y0086*
G37*
G36*
X01205Y00835D02*
X0119D01*
Y00819*
X01196Y00822*
X01202Y00828*
X01205Y00835*
G37*
G36*
X0118D02*
X01164D01*
X01167Y00828*
X01173Y00822*
X0118Y00819*
Y00835*
G37*
G36*
X0161Y00805D02*
Y0079D01*
X01625*
X01622Y00796*
X01616Y00802*
X0161Y00805*
G37*
G36*
X016D02*
X01593Y00802D01*
X01587Y00796*
X01584Y0079*
X016*
Y00805*
G37*
G36*
X01625Y0078D02*
X0161D01*
Y00764*
X01616Y00767*
X01622Y00773*
X01625Y0078*
G37*
G36*
X016D02*
X01584D01*
X01587Y00773*
X01593Y00767*
X016Y00764*
Y0078*
G37*
G36*
X00306Y0078D02*
X00289D01*
Y00755*
X00335*
X00335Y00757*
X00332Y00765*
X00327Y00771*
X00321Y00776*
X00313Y00779*
X00306Y0078*
G37*
G36*
X00279D02*
X00262D01*
X00255Y00779*
X00247Y00776*
X00241Y00771*
X00236Y00765*
X00233Y00757*
X00233Y00755*
X00279*
Y0078*
G37*
G36*
X00135D02*
X00125D01*
Y00755*
X00165*
X00164Y00757*
X00161Y00765*
X00156Y00771*
X0015Y00776*
X00143Y00779*
X00135Y0078*
G37*
G36*
X00115D02*
X00104D01*
X00096Y00779*
X00089Y00776*
X00083Y00771*
X00078Y00765*
X00075Y00757*
X00074Y00755*
X00115*
Y0078*
G37*
G36*
X02488Y0129D02*
X02275D01*
X02272Y01289*
X02269Y01287*
X02268Y01285*
X02267Y01282*
Y00762*
X02268Y00759*
X02269Y00756*
X02272Y00754*
X02275Y00754*
X02488*
X02491Y00754*
X02493Y00756*
X02495Y00759*
X02496Y00762*
Y01282*
X02495Y01285*
X02493Y01287*
X02491Y01289*
X02488Y0129*
G37*
G36*
X00335Y00745D02*
X00289D01*
Y0072*
X00306*
X00313Y00721*
X00321Y00724*
X00327Y00728*
X00332Y00735*
X00335Y00742*
X00335Y00745*
G37*
G36*
X00165D02*
X00125D01*
Y0072*
X00135*
X00143Y00721*
X0015Y00724*
X00156Y00728*
X00161Y00735*
X00164Y00742*
X00165Y00745*
G37*
G36*
X00115D02*
X00074D01*
X00075Y00742*
X00078Y00735*
X00083Y00728*
X00089Y00724*
X00096Y00721*
X00104Y0072*
X00115*
Y00745*
G37*
G36*
X01668Y01051D02*
X01661D01*
X01655Y01049*
X0165Y01044*
X01648Y01038*
Y01031*
X0165Y01025*
X01655Y0102*
X01661Y01018*
X01668*
X01669Y01018*
X01998Y0069*
X02002Y00687*
X02003Y00687*
X02005Y00685*
X02011Y00683*
X02018*
X02024Y00685*
X02029Y0069*
X02031Y00696*
Y00703*
X02029Y00709*
X02024Y00714*
X02018Y00716*
X02011*
X0201Y00716*
X01681Y01044*
X01677Y01047*
X01676Y01047*
X01674Y01049*
X01668Y01051*
G37*
G36*
X00279Y00745D02*
X00233D01*
X00233Y00742*
X00236Y00735*
X00241Y00728*
X00247Y00724*
X00255Y00721*
X00256Y00721*
X00257Y00713*
X00253Y00711*
X00247Y00705*
X00244Y00697*
Y00689*
X00247Y00682*
X00253Y00676*
X0026Y00673*
X00268*
X00276Y00676*
X00282Y00682*
X00285Y00689*
Y00697*
X00282Y00705*
X00276Y00711*
X00274Y00712*
X00275Y0072*
X00279*
Y00745*
G37*
G36*
X01673Y01116D02*
X01666D01*
X0166Y01114*
X01655Y01109*
X01653Y01103*
Y01096*
X01655Y0109*
X0166Y01085*
X01666Y01083*
X01668*
X02073Y00678*
Y00676*
X02075Y0067*
X0208Y00665*
X02086Y00663*
X02093*
X02099Y00665*
X02104Y0067*
X02106Y00676*
Y00683*
X02104Y00689*
X02099Y00694*
X02093Y00696*
X02091*
X01957Y00831*
X0196Y00838*
X01964*
X01971Y00842*
X01977Y00848*
X0198Y00855*
X0196*
Y0086*
X01955*
Y0088*
X01948Y00877*
X01942Y00871*
X01938Y00864*
Y0086*
X01931Y00857*
X01686Y01101*
Y01103*
X01684Y01109*
X01679Y01114*
X01673Y01116*
G37*
G36*
X0228Y00635D02*
Y0062D01*
X02295*
X02292Y00626*
X02286Y00632*
X0228Y00635*
G37*
G36*
X0227D02*
X02263Y00632D01*
X02257Y00626*
X02254Y0062*
X0227*
Y00635*
G37*
G36*
X0078Y00694D02*
X00769D01*
X00759Y00691*
X0075Y00686*
X00743Y00679*
X00738Y0067*
X00735Y0066*
Y00649*
X00738Y00639*
X00743Y0063*
X0075Y00623*
X00759Y00618*
X00769Y00615*
X0078*
X0079Y00618*
X00799Y00623*
X00806Y0063*
X00811Y00639*
X00814Y00649*
Y0066*
X00811Y0067*
X00806Y00679*
X00799Y00686*
X0079Y00691*
X0078Y00694*
G37*
G36*
X02295Y0061D02*
X0228D01*
Y00594*
X02286Y00597*
X02292Y00603*
X02295Y0061*
G37*
G36*
X0227D02*
X02254D01*
X02257Y00603*
X02263Y00597*
X0227Y00594*
Y0061*
G37*
G36*
X00814Y00594D02*
X00735D01*
Y00515*
X00814*
Y00594*
G37*
G36*
X0051Y0053D02*
Y00515D01*
X00525*
X00522Y00521*
X00516Y00527*
X0051Y0053*
G37*
G36*
X005D02*
X00493Y00527D01*
X00487Y00521*
X00484Y00515*
X005*
Y0053*
G37*
G36*
X0108Y00515D02*
Y005D01*
X01095*
X01092Y00506*
X01086Y00512*
X0108Y00515*
G37*
G36*
X0107D02*
X01063Y00512D01*
X01057Y00506*
X01054Y005*
X0107*
Y00515*
G37*
G36*
X00525Y00505D02*
X0051D01*
Y00489*
X00516Y00492*
X00522Y00498*
X00525Y00505*
G37*
G36*
X005D02*
X00484D01*
X00487Y00498*
X00493Y00492*
X005Y00489*
Y00505*
G37*
G36*
X01095Y0049D02*
X0108D01*
Y00474*
X01086Y00477*
X01092Y00483*
X01095Y0049*
G37*
G36*
X0107D02*
X01054D01*
X01057Y00483*
X01063Y00477*
X0107Y00474*
Y0049*
G37*
G36*
X00306Y00439D02*
X00289D01*
Y00415*
X00335*
X00335Y00417*
X00332Y00424*
X00327Y00431*
X00321Y00435*
X00313Y00438*
X00306Y00439*
G37*
G36*
X00268Y00486D02*
X0026D01*
X00253Y00483*
X00247Y00478*
X00244Y0047*
Y00462*
X00247Y00454*
X00253Y00448*
X00257Y00447*
X00256Y00439*
X00255Y00438*
X00247Y00435*
X00241Y00431*
X00236Y00424*
X00233Y00417*
X00233Y00415*
X00279*
Y00439*
X00275*
X00274Y00447*
X00276Y00448*
X00282Y00454*
X00285Y00462*
Y0047*
X00282Y00478*
X00276Y00483*
X00268Y00486*
G37*
G36*
X00135Y00439D02*
X00125D01*
Y00415*
X00165*
X00164Y00417*
X00161Y00424*
X00156Y00431*
X0015Y00435*
X00143Y00438*
X00135Y00439*
G37*
G36*
X00115D02*
X00104D01*
X00096Y00438*
X00089Y00435*
X00083Y00431*
X00078Y00424*
X00075Y00417*
X00074Y00415*
X00115*
Y00439*
G37*
G36*
X01668Y00981D02*
X01661D01*
X01655Y00979*
X0165Y00974*
X01648Y00968*
Y00961*
X0165Y00955*
X01655Y0095*
X01661Y00948*
X01663*
X01684Y00926*
Y00677*
X01685Y00672*
X01688Y00667*
X01933Y00423*
Y00421*
X01935Y00415*
X0194Y0041*
X01946Y00408*
X01953*
X01959Y0041*
X01964Y00415*
X01966Y00421*
Y00428*
X01964Y00434*
X01959Y00439*
X01953Y00441*
X01951*
X01711Y00682*
Y00932*
X0171Y00937*
X01707Y00941*
X01681Y00966*
Y00968*
X01679Y00974*
X01674Y00979*
X01668Y00981*
G37*
G36*
X00335Y00405D02*
X00289D01*
Y0038*
X00306*
X00313Y00381*
X00321Y00384*
X00327Y00388*
X00332Y00395*
X00335Y00402*
X00335Y00405*
G37*
G36*
X00279D02*
X00233D01*
X00233Y00402*
X00236Y00395*
X00241Y00388*
X00247Y00384*
X00255Y00381*
X00262Y0038*
X00279*
Y00405*
G37*
G36*
X00165D02*
X00125D01*
Y0038*
X00135*
X00143Y00381*
X0015Y00384*
X00156Y00388*
X00161Y00395*
X00164Y00402*
X00165Y00405*
G37*
G36*
X00115D02*
X00074D01*
X00075Y00402*
X00078Y00395*
X00083Y00388*
X00089Y00384*
X00096Y00381*
X00104Y0038*
X00115*
Y00405*
G37*
G36*
X01663Y00841D02*
X01656D01*
X0165Y00839*
X01645Y00834*
X01643Y00828*
Y00821*
X01645Y00815*
X01646Y00814*
Y0072*
X01637Y00711*
X01635Y00707*
X01634Y00702*
Y00602*
X01635Y00597*
X01637Y00593*
X01853Y00378*
Y00376*
X01855Y0037*
X0186Y00365*
X01866Y00363*
X01873*
X01879Y00365*
X01884Y0037*
X01886Y00376*
Y00383*
X01884Y00389*
X01879Y00394*
X01873Y00396*
X01871*
X0166Y00608*
Y00696*
X01669Y00705*
X01672Y00709*
X01673Y00714*
Y00814*
X01674Y00815*
X01676Y00821*
Y00828*
X01674Y00834*
X01669Y00839*
X01663Y00841*
G37*
G36*
X01753Y00382D02*
X01753D01*
Y00347*
X01788*
Y00348*
X01785Y00358*
X0178Y00367*
X01772Y00374*
X01763Y00379*
X01753Y00382*
G37*
G36*
X01743D02*
X01743D01*
X01733Y00379*
X01724Y00374*
X01716Y00367*
X01711Y00358*
X01709Y00348*
Y00347*
X01743*
Y00382*
G37*
G36*
X01488Y00791D02*
X01481D01*
X01475Y00789*
X0147Y00784*
X01468Y00778*
Y00771*
X0147Y00765*
X01471Y00764*
Y0045*
X01375Y00354*
X01374*
X01368Y00351*
X01363Y00347*
X0136Y0034*
Y00334*
X01363Y00328*
X01368Y00323*
X01374Y0032*
X0138*
X01387Y00323*
X01391Y00328*
X01394Y00334*
Y00335*
X01494Y00435*
X01497Y00439*
X01498Y00445*
Y00764*
X01499Y00765*
X01501Y00771*
Y00778*
X01499Y00784*
X01494Y00789*
X01488Y00791*
G37*
G36*
X01576Y0038D02*
X01566D01*
X01556Y00377*
X01548Y00372*
X01541Y00365*
X01536Y00357*
X01534Y00347*
Y00338*
X01536Y00328*
X01541Y0032*
X01548Y00313*
X01556Y00308*
X01566Y00305*
X01576*
X01585Y00308*
X01594Y00313*
X01601Y0032*
X01606Y00328*
X01608Y00338*
Y00347*
X01606Y00357*
X01601Y00365*
X01594Y00372*
X01585Y00377*
X01576Y0038*
G37*
G36*
X01788Y00337D02*
X01753D01*
Y00303*
X01753*
X01763Y00306*
X01772Y00311*
X0178Y00318*
X01785Y00327*
X01788Y00337*
Y00337*
G37*
G36*
X01743D02*
X01709D01*
Y00337*
X01711Y00327*
X01716Y00318*
X01724Y00311*
X01733Y00306*
X01743Y00303*
X01743*
Y00337*
G37*
G36*
X01753Y00126D02*
X01753D01*
Y00092*
X01788*
Y00092*
X01785Y00102*
X0178Y00111*
X01772Y00118*
X01763Y00123*
X01753Y00126*
G37*
G36*
X01743D02*
X01743D01*
X01733Y00123*
X01724Y00118*
X01716Y00111*
X01711Y00102*
X01709Y00092*
Y00092*
X01743*
Y00126*
G37*
G36*
X00235Y00297D02*
X00216Y00296D01*
X00198Y00291*
X00181Y00284*
X00165Y00275*
X00151Y00263*
X00139Y00249*
X00129Y00233*
X00122Y00216*
X00118Y00197*
X00116Y00179*
Y0017*
X00118Y00152*
X00122Y00133*
X00129Y00116*
X00139Y00101*
X00151Y00086*
X00165Y00074*
X00181Y00065*
X00198Y00058*
X00216Y00053*
X00235Y00052*
X00253Y00053*
X00271Y00058*
X00288Y00065*
X00304Y00074*
X00318Y00086*
X0033Y00101*
X0034Y00116*
X00347Y00133*
X00351Y00152*
X00353Y0017*
Y00179*
X00351Y00197*
X00347Y00216*
X0034Y00233*
X0033Y00249*
X00318Y00263*
X00304Y00275*
X00288Y00284*
X00271Y00291*
X00253Y00296*
X00235Y00297*
G37*
G36*
X01608Y00124D02*
X01534D01*
Y00049*
X01608*
Y00124*
G37*
G36*
X01788Y00082D02*
X01753D01*
Y00047*
X01753*
X01763Y0005*
X01772Y00055*
X0178Y00062*
X01785Y00071*
X01788Y00081*
Y00082*
G37*
G36*
X01743D02*
X01709D01*
Y00081*
X01711Y00071*
X01716Y00062*
X01724Y00055*
X01733Y0005*
X01743Y00047*
X01743*
Y00082*
G37*
%LNmain-3*%
%LPD*%
G54D10*
X01248Y00956D02*
Y00971D01*
Y00956D02*
X0131Y00895D01*
X01185Y01035D02*
X01248Y00971D01*
X0131Y00895D02*
X01555D01*
X0157Y0088D02*
X0159D01*
X01555Y00895D02*
X0157Y0088D01*
G54D89*
X01015Y0098D02*
Y0098D01*
X0101Y0107D02*
D01*
Y00985D02*
X01015Y0098D01*
X0101Y00985D02*
Y0107D01*
Y01165D01*
X01115Y0127*
Y0138*
X01145Y0141*
G54D90*
X01035Y01145D02*
X0131Y0087D01*
X01545*
X01485Y00445D02*
Y00775D01*
X01377Y00337D02*
X01485Y00445D01*
X0112Y00792D02*
X0113Y00782D01*
X0112Y00792D02*
Y00935D01*
X0113Y0078D02*
Y00782D01*
X01445Y00615D02*
Y0074D01*
X01283Y00846D02*
X01492D01*
X01035Y01095D02*
X01283Y00846D01*
X01492D02*
X01509Y0083D01*
X0151*
X01315Y00825D02*
X01375D01*
X0123Y0074D02*
X01315Y00825D01*
X01191Y00698D02*
X01308D01*
X01145Y00745D02*
X01191Y00698D01*
X00955Y00745D02*
X01145D01*
X01308Y00698D02*
X0142Y0081D01*
X01665Y00965D02*
X01697Y00932D01*
Y00677D02*
X0195Y00425D01*
X01647Y00602D02*
Y00702D01*
X0166Y00714D02*
Y00825D01*
X01647Y00702D02*
X0166Y00714D01*
X01697Y00677D02*
Y00932D01*
X01647Y00602D02*
X0187Y0038D01*
X0167Y011D02*
X0209Y0068D01*
X01665Y01035D02*
X01672D01*
X02007Y007*
X02015*
G54D91*
X00284Y0075D03*
Y0041D03*
G54D92*
X0012Y0075D03*
Y0041D03*
G54D93*
X00264Y00693D03*
Y00466D03*
G54D94*
X01748Y00342D03*
Y00087D03*
X01571Y00342D03*
G54D95*
X00775Y00655D03*
G54D96*
X01571Y00087D03*
G54D97*
X02415Y0145D03*
X0243Y00215D03*
X00235Y00175D03*
X0019Y0148D03*
G54D98*
X00775Y00555D03*
G54D99*
X01435Y0078D03*
X01605Y00785D03*
X00505Y0051D03*
X0192Y01195D03*
X0196Y0086D03*
X0216Y0117D03*
X02275Y00615D03*
X01075Y00495D03*
X01185Y0084D03*
G54D100*
X01015Y0098D03*
X01185Y01035D03*
X01545Y0087D03*
X01485Y00775D03*
X01377Y00337D03*
X01145Y0141D03*
X01115Y0127D03*
X0112Y00935D03*
X0113Y0078D03*
X01445Y0074D03*
Y00615D03*
X0159Y0088D03*
X01035Y01095D03*
X0151Y0083D03*
X0123Y0074D03*
X00955Y00745D03*
X0142Y0081D03*
X01375Y00825D03*
X01035Y01145D03*
X0166Y00825D03*
X0187Y0038D03*
X01665Y00965D03*
X0195Y00425D03*
X0167Y011D03*
X01665Y01035D03*
X02015Y007D03*
X0209Y0068D03*
G54D101*
X0128Y0099D03*
Y01033D03*
Y01076D03*
Y0112D03*
Y01163D03*
Y01206D03*
Y01249D03*
X01323Y0099D03*
Y01033D03*
Y01076D03*
Y0112D03*
Y01163D03*
Y01206D03*
Y01249D03*
X01366Y0099D03*
Y01033D03*
Y01076D03*
Y0112D03*
Y01163D03*
Y01206D03*
Y01249D03*
X0141Y0099D03*
Y01033D03*
Y01076D03*
Y0112D03*
Y01163D03*
Y01206D03*
Y01249D03*
X01453Y0099D03*
Y01033D03*
Y01076D03*
Y0112D03*
Y01163D03*
Y01206D03*
Y01249D03*
X01496Y0099D03*
Y01033D03*
Y01076D03*
Y0112D03*
Y01163D03*
Y01206D03*
Y01249D03*
X01539Y0099D03*
Y01033D03*
Y01076D03*
Y0112D03*
Y01163D03*
Y01206D03*
Y01249D03*
M02*