%FSTAX23Y23*%
%MOIN*%
%SFA1B1*%

%IPPOS*%
%ADD13C,0.005000*%
%ADD107C,0.006665*%
%LNmain-1*%
%LPD*%
G54D13*
X00264Y0073D02*
Y0077D01*
X00304*
Y0073*
X00264*
Y0039D02*
Y0043D01*
X00304*
Y0039*
X00264*
X00264Y00673D02*
X00244Y00713D01*
X00284*
X00264Y00673*
Y00446D02*
X00244Y00486D01*
X00284*
X00264Y00446*
X01748Y00322D02*
X01758Y00332D01*
X01768*
X01758Y00342*
X01768Y00352*
X01758*
X01748Y00362*
X01738Y00352*
X01728*
X01738Y00342*
X01728Y00332*
X01738*
X01748Y00322*
Y00067D02*
X01758Y00077D01*
X01768*
X01758Y00087*
X01768Y00097*
X01758*
X01748Y00107*
X01738Y00097*
X01728*
X01738Y00087*
X01728Y00077*
X01738*
X01748Y00067*
X00755Y00635D02*
X00765Y00655D01*
X00755Y00675*
X00775Y00665*
X00795Y00675*
X00785Y00655*
X00795Y00635*
X00775Y00645*
X00755Y00635*
X01571Y00322D02*
X01581Y00332D01*
X01591*
X01581Y00342*
X01591Y00352*
X01581*
X01571Y00362*
X01561Y00352*
X01551*
X01561Y00342*
X01551Y00332*
X01561*
X01571Y00322*
Y00067D02*
X01581Y00077D01*
X01591*
X01581Y00087*
X01591Y00097*
X01581*
X01571Y00107*
X01561Y00097*
X01551*
X01561Y00087*
X01551Y00077*
X01561*
X01571Y00067*
X02395Y0143D02*
X02405D01*
X02415Y0144*
X02425Y0143*
X02435*
Y0144*
X02425Y0145*
X02435Y0146*
Y0147*
X02425*
X02415Y0146*
X02405Y0147*
X02395*
Y0146*
X02405Y0145*
X02395Y0144*
Y0143*
X0241Y00195D02*
X0242D01*
X0243Y00205*
X0244Y00195*
X0245*
Y00205*
X0244Y00215*
X0245Y00225*
Y00235*
X0244*
X0243Y00225*
X0242Y00235*
X0241*
Y00225*
X0242Y00215*
X0241Y00205*
Y00195*
X00215Y00155D02*
X00225D01*
X00235Y00165*
X00245Y00155*
X00255*
Y00165*
X00245Y00175*
X00255Y00185*
Y00195*
X00245*
X00235Y00185*
X00225Y00195*
X00215*
Y00185*
X00225Y00175*
X00215Y00165*
Y00155*
X0017Y0146D02*
X0018D01*
X0019Y0147*
X002Y0146*
X0021*
Y0147*
X002Y0148*
X0021Y0149*
Y015*
X002*
X0019Y0149*
X0018Y015*
X0017*
Y0149*
X0018Y0148*
X0017Y0147*
Y0146*
X00755Y00535D02*
X00765Y00555D01*
X00755Y00575*
X00775Y00565*
X00795Y00575*
X00785Y00555*
X00795Y00535*
X00775Y00545*
X00755Y00535*
X01415Y0078D02*
X01435Y008D01*
X01455Y0078*
X01435Y0076*
X01415Y0078*
X01585Y00785D02*
X01605Y00805D01*
X01625Y00785*
X01605Y00765*
X01585Y00785*
X00485Y0051D02*
X00505Y0053D01*
X00525Y0051*
X00505Y0049*
X00485Y0051*
X019Y01195D02*
X0192Y01215D01*
X0194Y01195*
X0192Y01175*
X019Y01195*
X0194Y0086D02*
X0196Y0088D01*
X0198Y0086*
X0196Y0084*
X0194Y0086*
X0214Y0117D02*
X0216Y0119D01*
X0218Y0117*
X0216Y0115*
X0214Y0117*
X02255Y00615D02*
X02275Y00635D01*
X02295Y00615*
X02275Y00595*
X02255Y00615*
X01055Y00495D02*
X01075Y00515D01*
X01095Y00495*
X01075Y00475*
X01055Y00495*
X01165Y0084D02*
X01185Y0086D01*
X01205Y0084*
X01185Y0082*
X01165Y0084*
X00995Y0096D02*
Y01D01*
X01035*
Y0096*
X00995*
X01003Y00968D02*
Y00992D01*
X01027*
Y00968*
X01003*
X01165Y01015D02*
Y01055D01*
X01205*
Y01015*
X01165*
X01173Y01023D02*
Y01047D01*
X01197*
Y01023*
X01173*
X01525Y0085D02*
Y0089D01*
X01565*
Y0085*
X01525*
X01533Y00858D02*
Y00882D01*
X01557*
Y00858*
X01533*
X0127Y0098D02*
Y0097D01*
X0129*
Y0098*
X013*
Y01*
X0129*
Y0101*
X0127*
Y01*
X0126*
Y0098*
X0127*
Y01023D02*
Y01013D01*
X0129*
Y01023*
X013*
Y01043*
X0129*
Y01053*
X0127*
Y01043*
X0126*
Y01023*
X0127*
Y01066D02*
Y01056D01*
X0129*
Y01066*
X013*
Y01086*
X0129*
Y01096*
X0127*
Y01086*
X0126*
Y01066*
X0127*
Y0111D02*
Y011D01*
X0129*
Y0111*
X013*
Y0113*
X0129*
Y0114*
X0127*
Y0113*
X0126*
Y0111*
X0127*
Y01153D02*
Y01143D01*
X0129*
Y01153*
X013*
Y01173*
X0129*
Y01183*
X0127*
Y01173*
X0126*
Y01153*
X0127*
Y01196D02*
Y01186D01*
X0129*
Y01196*
X013*
Y01216*
X0129*
Y01226*
X0127*
Y01216*
X0126*
Y01196*
X0127*
Y01239D02*
Y01229D01*
X0129*
Y01239*
X013*
Y01259*
X0129*
Y01269*
X0127*
Y01259*
X0126*
Y01239*
X0127*
X01313Y0098D02*
Y0097D01*
X01333*
Y0098*
X01343*
Y01*
X01333*
Y0101*
X01313*
Y01*
X01303*
Y0098*
X01313*
Y01023D02*
Y01013D01*
X01333*
Y01023*
X01343*
Y01043*
X01333*
Y01053*
X01313*
Y01043*
X01303*
Y01023*
X01313*
Y01066D02*
Y01056D01*
X01333*
Y01066*
X01343*
Y01086*
X01333*
Y01096*
X01313*
Y01086*
X01303*
Y01066*
X01313*
Y0111D02*
Y011D01*
X01333*
Y0111*
X01343*
Y0113*
X01333*
Y0114*
X01313*
Y0113*
X01303*
Y0111*
X01313*
Y01153D02*
Y01143D01*
X01333*
Y01153*
X01343*
Y01173*
X01333*
Y01183*
X01313*
Y01173*
X01303*
Y01153*
X01313*
Y01196D02*
Y01186D01*
X01333*
Y01196*
X01343*
Y01216*
X01333*
Y01226*
X01313*
Y01216*
X01303*
Y01196*
X01313*
Y01239D02*
Y01229D01*
X01333*
Y01239*
X01343*
Y01259*
X01333*
Y01269*
X01313*
Y01259*
X01303*
Y01239*
X01313*
X01356Y0098D02*
Y0097D01*
X01376*
Y0098*
X01386*
Y01*
X01376*
Y0101*
X01356*
Y01*
X01346*
Y0098*
X01356*
Y01023D02*
Y01013D01*
X01376*
Y01023*
X01386*
Y01043*
X01376*
Y01053*
X01356*
Y01043*
X01346*
Y01023*
X01356*
Y01066D02*
Y01056D01*
X01376*
Y01066*
X01386*
Y01086*
X01376*
Y01096*
X01356*
Y01086*
X01346*
Y01066*
X01356*
Y0111D02*
Y011D01*
X01376*
Y0111*
X01386*
Y0113*
X01376*
Y0114*
X01356*
Y0113*
X01346*
Y0111*
X01356*
Y01153D02*
Y01143D01*
X01376*
Y01153*
X01386*
Y01173*
X01376*
Y01183*
X01356*
Y01173*
X01346*
Y01153*
X01356*
Y01196D02*
Y01186D01*
X01376*
Y01196*
X01386*
Y01216*
X01376*
Y01226*
X01356*
Y01216*
X01346*
Y01196*
X01356*
Y01239D02*
Y01229D01*
X01376*
Y01239*
X01386*
Y01259*
X01376*
Y01269*
X01356*
Y01259*
X01346*
Y01239*
X01356*
X014Y0098D02*
Y0097D01*
X0142*
Y0098*
X0143*
Y01*
X0142*
Y0101*
X014*
Y01*
X0139*
Y0098*
X014*
Y01023D02*
Y01013D01*
X0142*
Y01023*
X0143*
Y01043*
X0142*
Y01053*
X014*
Y01043*
X0139*
Y01023*
X014*
Y01066D02*
Y01056D01*
X0142*
Y01066*
X0143*
Y01086*
X0142*
Y01096*
X014*
Y01086*
X0139*
Y01066*
X014*
Y0111D02*
Y011D01*
X0142*
Y0111*
X0143*
Y0113*
X0142*
Y0114*
X014*
Y0113*
X0139*
Y0111*
X014*
Y01153D02*
Y01143D01*
X0142*
Y01153*
X0143*
Y01173*
X0142*
Y01183*
X014*
Y01173*
X0139*
Y01153*
X014*
Y01196D02*
Y01186D01*
X0142*
Y01196*
X0143*
Y01216*
X0142*
Y01226*
X014*
Y01216*
X0139*
Y01196*
X014*
Y01239D02*
Y01229D01*
X0142*
Y01239*
X0143*
Y01259*
X0142*
Y01269*
X014*
Y01259*
X0139*
Y01239*
X014*
X01443Y0098D02*
Y0097D01*
X01463*
Y0098*
X01473*
Y01*
X01463*
Y0101*
X01443*
Y01*
X01433*
Y0098*
X01443*
Y01023D02*
Y01013D01*
X01463*
Y01023*
X01473*
Y01043*
X01463*
Y01053*
X01443*
Y01043*
X01433*
Y01023*
X01443*
Y01066D02*
Y01056D01*
X01463*
Y01066*
X01473*
Y01086*
X01463*
Y01096*
X01443*
Y01086*
X01433*
Y01066*
X01443*
Y0111D02*
Y011D01*
X01463*
Y0111*
X01473*
Y0113*
X01463*
Y0114*
X01443*
Y0113*
X01433*
Y0111*
X01443*
Y01153D02*
Y01143D01*
X01463*
Y01153*
X01473*
Y01173*
X01463*
Y01183*
X01443*
Y01173*
X01433*
Y01153*
X01443*
Y01196D02*
Y01186D01*
X01463*
Y01196*
X01473*
Y01216*
X01463*
Y01226*
X01443*
Y01216*
X01433*
Y01196*
X01443*
Y01239D02*
Y01229D01*
X01463*
Y01239*
X01473*
Y01259*
X01463*
Y01269*
X01443*
Y01259*
X01433*
Y01239*
X01443*
X01486Y0098D02*
Y0097D01*
X01506*
Y0098*
X01516*
Y01*
X01506*
Y0101*
X01486*
Y01*
X01476*
Y0098*
X01486*
Y01023D02*
Y01013D01*
X01506*
Y01023*
X01516*
Y01043*
X01506*
Y01053*
X01486*
Y01043*
X01476*
Y01023*
X01486*
Y01066D02*
Y01056D01*
X01506*
Y01066*
X01516*
Y01086*
X01506*
Y01096*
X01486*
Y01086*
X01476*
Y01066*
X01486*
Y0111D02*
Y011D01*
X01506*
Y0111*
X01516*
Y0113*
X01506*
Y0114*
X01486*
Y0113*
X01476*
Y0111*
X01486*
Y01153D02*
Y01143D01*
X01506*
Y01153*
X01516*
Y01173*
X01506*
Y01183*
X01486*
Y01173*
X01476*
Y01153*
X01486*
Y01196D02*
Y01186D01*
X01506*
Y01196*
X01516*
Y01216*
X01506*
Y01226*
X01486*
Y01216*
X01476*
Y01196*
X01486*
Y01239D02*
Y01229D01*
X01506*
Y01239*
X01516*
Y01259*
X01506*
Y01269*
X01486*
Y01259*
X01476*
Y01239*
X01486*
X01529Y0098D02*
Y0097D01*
X01549*
Y0098*
X01559*
Y01*
X01549*
Y0101*
X01529*
Y01*
X01519*
Y0098*
X01529*
Y01023D02*
Y01013D01*
X01549*
Y01023*
X01559*
Y01043*
X01549*
Y01053*
X01529*
Y01043*
X01519*
Y01023*
X01529*
Y01066D02*
Y01056D01*
X01549*
Y01066*
X01559*
Y01086*
X01549*
Y01096*
X01529*
Y01086*
X01519*
Y01066*
X01529*
Y0111D02*
Y011D01*
X01549*
Y0111*
X01559*
Y0113*
X01549*
Y0114*
X01529*
Y0113*
X01519*
Y0111*
X01529*
Y01153D02*
Y01143D01*
X01549*
Y01153*
X01559*
Y01173*
X01549*
Y01183*
X01529*
Y01173*
X01519*
Y01153*
X01529*
Y01196D02*
Y01186D01*
X01549*
Y01196*
X01559*
Y01216*
X01549*
Y01226*
X01529*
Y01216*
X01519*
Y01196*
X01529*
Y01239D02*
Y01229D01*
X01549*
Y01239*
X01559*
Y01259*
X01549*
Y01269*
X01529*
Y01259*
X01519*
Y01239*
X01529*
X01465Y00755D02*
Y00795D01*
X01505*
Y00755*
X01465*
X01473Y00763D02*
Y00787D01*
X01497*
Y00763*
X01473*
X01357Y00317D02*
Y00357D01*
X01397*
Y00317*
X01357*
X01365Y00325D02*
Y00349D01*
X01389*
Y00325*
X01365*
X01125Y0139D02*
Y0143D01*
X01165*
Y0139*
X01125*
X01133Y01398D02*
Y01422D01*
X01157*
Y01398*
X01133*
X01095Y0125D02*
Y0129D01*
X01135*
Y0125*
X01095*
X01103Y01258D02*
Y01282D01*
X01127*
Y01258*
X01103*
X011Y00915D02*
Y00955D01*
X0114*
Y00915*
X011*
X01108Y00923D02*
Y00947D01*
X01132*
Y00923*
X01108*
X0111Y0076D02*
Y008D01*
X0115*
Y0076*
X0111*
X01118Y00768D02*
Y00792D01*
X01142*
Y00768*
X01118*
X01425Y0072D02*
Y0076D01*
X01465*
Y0072*
X01425*
X01433Y00728D02*
Y00752D01*
X01457*
Y00728*
X01433*
X01425Y00595D02*
Y00635D01*
X01465*
Y00595*
X01425*
X01433Y00603D02*
Y00627D01*
X01457*
Y00603*
X01433*
X0157Y0086D02*
Y009D01*
X0161*
Y0086*
X0157*
X01578Y00868D02*
Y00892D01*
X01602*
Y00868*
X01578*
X01015Y01075D02*
Y01115D01*
X01055*
Y01075*
X01015*
X01023Y01083D02*
Y01107D01*
X01047*
Y01083*
X01023*
X0149Y0081D02*
Y0085D01*
X0153*
Y0081*
X0149*
X01498Y00818D02*
Y00842D01*
X01522*
Y00818*
X01498*
X0121Y0072D02*
Y0076D01*
X0125*
Y0072*
X0121*
X01218Y00728D02*
Y00752D01*
X01242*
Y00728*
X01218*
X00935Y00725D02*
Y00765D01*
X00975*
Y00725*
X00935*
X00943Y00733D02*
Y00757D01*
X00967*
Y00733*
X00943*
X014Y0079D02*
Y0083D01*
X0144*
Y0079*
X014*
X01408Y00798D02*
Y00822D01*
X01432*
Y00798*
X01408*
X01355Y00805D02*
Y00845D01*
X01395*
Y00805*
X01355*
X01363Y00813D02*
Y00837D01*
X01387*
Y00813*
X01363*
X01015Y01125D02*
Y01165D01*
X01055*
Y01125*
X01015*
X01023Y01133D02*
Y01157D01*
X01047*
Y01133*
X01023*
X0164Y00805D02*
Y00845D01*
X0168*
Y00805*
X0164*
X01648Y00813D02*
Y00837D01*
X01672*
Y00813*
X01648*
X0185Y0036D02*
Y004D01*
X0189*
Y0036*
X0185*
X01858Y00368D02*
Y00392D01*
X01882*
Y00368*
X01858*
X01645Y00945D02*
Y00985D01*
X01685*
Y00945*
X01645*
X01653Y00953D02*
Y00977D01*
X01677*
Y00953*
X01653*
X0193Y00405D02*
Y00445D01*
X0197*
Y00405*
X0193*
X01938Y00413D02*
Y00437D01*
X01962*
Y00413*
X01938*
X0165Y0108D02*
Y0112D01*
X0169*
Y0108*
X0165*
X01658Y01088D02*
Y01112D01*
X01682*
Y01088*
X01658*
X01645Y01015D02*
Y01055D01*
X01685*
Y01015*
X01645*
X01653Y01023D02*
Y01047D01*
X01677*
Y01023*
X01653*
X01995Y0068D02*
Y0072D01*
X02035*
Y0068*
X01995*
X02003Y00688D02*
Y00712D01*
X02027*
Y00688*
X02003*
X0207Y0066D02*
Y007D01*
X0211*
Y0066*
X0207*
X02078Y00668D02*
Y00692D01*
X02102*
Y00668*
X02078*
G54D107*
X0014Y0075D02*
D01*
D01*
G75*
G03X001I-00020J0D01*
G74*G01*
D01*
G75*
G03X0014I00020J0D01*
G74*G01*
Y0041D02*
D01*
D01*
G75*
G03X001I-00020J0D01*
G74*G01*
D01*
G75*
G03X0014I00020J0D01*
G74*G01*
M02*