%FSTAX23Y23*%
%MOIN*%
%SFA1B1*%

%IPPOS*%
%AMD21*
4,1,8,-0.018300,0.012800,-0.018300,-0.012800,-0.014000,-0.017100,0.014000,-0.017100,0.018300,-0.012800,0.018300,0.012800,0.014000,0.017100,-0.014000,0.017100,-0.018300,0.012800,0.0*
1,1,0.008567,-0.014000,0.012800*
1,1,0.008567,-0.014000,-0.012800*
1,1,0.008567,0.014000,-0.012800*
1,1,0.008567,0.014000,0.012800*
%
%AMD22*
4,1,8,-0.011800,0.007400,-0.011800,-0.007400,-0.009400,-0.009800,0.009400,-0.009800,0.011800,-0.007400,0.011800,0.007400,0.009400,0.009800,-0.009400,0.009800,-0.011800,0.007400,0.0*
1,1,0.004921,-0.009400,0.007400*
1,1,0.004921,-0.009400,-0.007400*
1,1,0.004921,0.009400,-0.007400*
1,1,0.004921,0.009400,0.007400*
%
%AMD25*
4,1,8,0.026600,-0.010000,0.026600,0.010000,0.024800,0.011800,-0.024800,0.011800,-0.026600,0.010000,-0.026600,-0.010000,-0.024800,-0.011800,0.024800,-0.011800,0.026600,-0.010000,0.0*
1,1,0.003543,0.024800,-0.010000*
1,1,0.003543,0.024800,0.010000*
1,1,0.003543,-0.024800,0.010000*
1,1,0.003543,-0.024800,-0.010000*
%
%AMD37*
4,1,8,0.012800,0.018300,-0.012800,0.018300,-0.017100,0.014000,-0.017100,-0.014000,-0.012800,-0.018300,0.012800,-0.018300,0.017100,-0.014000,0.017100,0.014000,0.012800,0.018300,0.0*
1,1,0.008567,0.012800,0.014000*
1,1,0.008567,-0.012800,0.014000*
1,1,0.008567,-0.012800,-0.014000*
1,1,0.008567,0.012800,-0.014000*
%
%AMD38*
4,1,8,0.011800,-0.008000,0.011800,0.008000,0.009200,0.010600,-0.009200,0.010600,-0.011800,0.008000,-0.011800,-0.008000,-0.009200,-0.010600,0.009200,-0.010600,0.011800,-0.008000,0.0*
1,1,0.005315,0.009200,-0.008000*
1,1,0.005315,0.009200,0.008000*
1,1,0.005315,-0.009200,0.008000*
1,1,0.005315,-0.009200,-0.008000*
%
%AMD39*
4,1,8,0.007400,0.011800,-0.007400,0.011800,-0.009800,0.009400,-0.009800,-0.009400,-0.007400,-0.011800,0.007400,-0.011800,0.009800,-0.009400,0.009800,0.009400,0.007400,0.011800,0.0*
1,1,0.004921,0.007400,0.009400*
1,1,0.004921,-0.007400,0.009400*
1,1,0.004921,-0.007400,-0.009400*
1,1,0.004921,0.007400,-0.009400*
%
%AMD40*
4,1,8,-0.008000,-0.011800,0.008000,-0.011800,0.010600,-0.009200,0.010600,0.009200,0.008000,0.011800,-0.008000,0.011800,-0.010600,0.009200,-0.010600,-0.009200,-0.008000,-0.011800,0.0*
1,1,0.005315,-0.008000,-0.009200*
1,1,0.005315,0.008000,-0.009200*
1,1,0.005315,0.008000,0.009200*
1,1,0.005315,-0.008000,0.009200*
%
%ADD16R,0.045275X0.011811*%
%ADD17R,0.045275X0.023622*%
%ADD18O,0.009843X0.031496*%
%ADD19O,0.031496X0.009843*%
%ADD20R,0.301181X0.301181*%
G04~CAMADD=21~8~0.0~0.0~342.5~366.1~42.8~0.0~15~0.0~0.0~0.0~0.0~0~0.0~0.0~0.0~0.0~0~0.0~0.0~0.0~90.0~366.0~343.0*
%ADD21D21*%
G04~CAMADD=22~8~0.0~0.0~196.9~236.2~24.6~0.0~15~0.0~0.0~0.0~0.0~0~0.0~0.0~0.0~0.0~0~0.0~0.0~0.0~90.0~236.0~196.0*
%ADD22D22*%
%ADD23R,0.037500X0.020000*%
%ADD24R,0.035433X0.031496*%
G04~CAMADD=25~8~0.0~0.0~236.2~531.5~17.7~0.0~15~0.0~0.0~0.0~0.0~0~0.0~0.0~0.0~0.0~0~0.0~0.0~0.0~270.0~532.0~236.0*
%ADD25D25*%
%ADD26O,0.062992X0.023622*%
%ADD27R,0.087000X0.087000*%
%ADD28R,0.014000X0.034000*%
%ADD29R,0.034000X0.014000*%
%ADD30R,0.027559X0.027559*%
%ADD31R,0.057087X0.057087*%
%ADD32R,0.031496X0.015748*%
%ADD33R,0.015748X0.031496*%
%ADD34R,0.021260X0.023622*%
%ADD35R,0.078000X0.022000*%
%ADD36R,0.033465X0.019685*%
G04~CAMADD=37~8~0.0~0.0~342.5~366.1~42.8~0.0~15~0.0~0.0~0.0~0.0~0~0.0~0.0~0.0~0.0~0~0.0~0.0~0.0~0.0~342.5~366.1*
%ADD37D37*%
G04~CAMADD=38~8~0.0~0.0~212.6~236.2~26.6~0.0~15~0.0~0.0~0.0~0.0~0~0.0~0.0~0.0~0.0~0~0.0~0.0~0.0~270.0~236.0~212.0*
%ADD38D38*%
G04~CAMADD=39~8~0.0~0.0~196.9~236.2~24.6~0.0~15~0.0~0.0~0.0~0.0~0~0.0~0.0~0.0~0.0~0~0.0~0.0~0.0~0.0~196.9~236.2*
%ADD39D39*%
G04~CAMADD=40~8~0.0~0.0~212.6~236.2~26.6~0.0~15~0.0~0.0~0.0~0.0~0~0.0~0.0~0.0~0.0~0~0.0~0.0~0.0~180.0~212.0~236.0*
%ADD40D40*%
%ADD41R,0.048819X0.061417*%
%ADD42R,0.025197X0.028346*%
%ADD43R,0.034252X0.036614*%
%ADD44R,0.036614X0.034252*%
%ADD45R,0.040945X0.040157*%
%ADD46R,0.027559X0.035433*%
%LNmain-1*%
%LPD*%
G36*
X02104Y01071D02*
Y01128D01*
X02137*
X02161Y01104*
Y01071*
X02104*
G37*
G54D16*
X00306Y00589D03*
Y00609D03*
Y00629D03*
Y00648D03*
Y0057D03*
Y0055D03*
Y0053D03*
Y00511D03*
G54D17*
X00306Y00674D03*
Y00706D03*
Y00485D03*
Y00454D03*
G54D18*
X01262Y00945D03*
X01282D03*
X01301D03*
X01321D03*
X01341D03*
X0136D03*
X0138D03*
X014D03*
X01419D03*
X01439D03*
X01459D03*
X01478D03*
X01498D03*
X01518D03*
X01537D03*
X01557D03*
Y01294D03*
X01537D03*
X01518D03*
X01498D03*
X01478D03*
X01459D03*
X01439D03*
X01419D03*
X014D03*
X0138D03*
X0136D03*
X01341D03*
X01321D03*
X01301D03*
X01282D03*
X01262D03*
G54D19*
X01584Y00972D03*
Y00992D03*
Y01011D03*
Y01031D03*
Y01051D03*
Y0107D03*
Y0109D03*
Y0111D03*
Y01129D03*
Y01149D03*
Y01169D03*
Y01188D03*
Y01208D03*
Y01228D03*
Y01247D03*
Y01267D03*
X01235D03*
Y01247D03*
Y01228D03*
Y01208D03*
Y01188D03*
Y01169D03*
Y01149D03*
Y01129D03*
Y0111D03*
Y0109D03*
Y0107D03*
Y01051D03*
Y01031D03*
Y01011D03*
Y00992D03*
Y00972D03*
G54D20*
X0141Y0112D03*
G54D21*
X0141Y01414D03*
X01305Y0141D03*
X0112Y0069D03*
X01755Y00559D03*
X0184D03*
X0112Y00629D03*
X01035Y0069D03*
X0168Y0116D03*
X0063Y01275D03*
X01305Y01471D03*
X0141Y01475D03*
X0168Y01221D03*
X01755Y0062D03*
X0184D03*
X0063Y01214D03*
X01035Y00629D03*
G54D22*
X013Y00225D03*
Y00189D03*
X0095Y00184D03*
X00775Y00369D03*
X00475Y00365D03*
X0095Y0022D03*
X00775Y00405D03*
X00475Y0033D03*
G54D23*
X01195Y00222D03*
X01094Y00185D03*
Y00222D03*
Y00147D03*
X01195D03*
G54D24*
X0105Y00842D03*
X00977Y009D03*
Y00842D03*
X0105Y009D03*
G54D25*
X00588Y00365D03*
Y00402D03*
Y00327D03*
X00681D03*
Y00402D03*
G54D26*
X0131Y00545D03*
X01593Y00695D03*
Y00645D03*
X0131Y00595D03*
X01593Y00545D03*
X0131Y00695D03*
Y00645D03*
X01593Y00595D03*
G54D27*
X0016Y0105D03*
G54D28*
X00173Y00974D03*
X00147D03*
X00122D03*
X00173Y01126D03*
X00147D03*
X00198Y00974D03*
Y01126D03*
X00122D03*
G54D29*
X00084Y01037D03*
Y01063D03*
Y01088D03*
Y01012D03*
X00236D03*
Y01037D03*
Y01063D03*
Y01088D03*
G54D30*
X02249Y01256D03*
X0186D03*
Y00787D03*
X02249D03*
G54D31*
X02055Y01022D03*
Y011D03*
X01977D03*
Y01022D03*
Y00944D03*
X02055D03*
X02132D03*
Y01022D03*
G54D32*
X02247Y01211D03*
Y01179D03*
Y01148D03*
Y01116D03*
Y01085D03*
Y01053D03*
Y01022D03*
Y0099D03*
Y00959D03*
Y00927D03*
Y00896D03*
Y00864D03*
Y00833D03*
X01862Y01148D03*
Y01211D03*
Y01179D03*
Y01116D03*
Y01085D03*
Y01053D03*
Y01022D03*
Y0099D03*
Y00959D03*
Y00927D03*
Y00896D03*
Y00864D03*
Y00833D03*
G54D33*
X01897Y01254D03*
X0218D03*
X02212D03*
X02149D03*
X02117D03*
X02086D03*
X02055D03*
X02023D03*
X01992D03*
X0196D03*
X01929D03*
X01897Y00789D03*
X01929D03*
X0196D03*
X01992D03*
X02023D03*
X02055D03*
X02086D03*
X02117D03*
X02149D03*
X0218D03*
X02212D03*
G54D34*
X00414Y00505D03*
X00424Y00625D03*
X0039D03*
X0038Y00505D03*
G54D35*
X00747Y01045D03*
Y01095D03*
X00933Y01195D03*
X00747D03*
X00933Y01145D03*
Y01095D03*
Y01045D03*
X00747Y01145D03*
G54D36*
X02209Y00175D03*
X0214Y00214D03*
X02209D03*
X0214Y00175D03*
G54D37*
X01498Y01395D03*
X00215Y01305D03*
X0224Y0137D03*
X02178D03*
X0156Y01395D03*
X00154Y01305D03*
G54D38*
X0043Y01204D03*
Y0117D03*
G54D39*
X0193Y0137D03*
X0018Y0121D03*
X00144D03*
X01965Y0137D03*
G54D40*
X00399Y0104D03*
X00365D03*
G54D41*
X00409Y0093D03*
X0034D03*
G54D42*
X02215Y0144D03*
X0218D03*
G54D43*
X021Y01375D03*
X0136Y00085D03*
X01421D03*
X02039Y01375D03*
G54D44*
X0175Y00799D03*
X0095Y00625D03*
Y00686D03*
X0175Y0086D03*
G54D45*
X01962Y00135D03*
X0202D03*
X01967Y00265D03*
X02025D03*
G54D46*
X00395Y0111D03*
X00344D03*
M02*