%FSTAX23Y23*%
%MOIN*%
%SFA1B1*%

%IPPOS*%
%ADD10C,0.007874*%
%ADD12C,0.000000*%
%ADD13C,0.005000*%
%ADD14C,0.006000*%
%ADD15C,0.003000*%
%ADD90C,0.010000*%
%ADD102C,0.003937*%
%ADD103C,0.001000*%
%ADD104C,0.008197*%
%LNmain-1*%
%LPD*%
G36*
X00348Y01122D02*
X00359D01*
Y01098*
X00348*
Y01122*
G37*
G36*
X0038Y01122D02*
X00391D01*
Y01098*
X0038*
Y01122*
G37*
G54D10*
X00356Y00706D02*
D01*
D01*
G75*
G03X00348I-00003J0D01*
G74*G01*
D01*
G75*
G03X00356I00003J0D01*
G74*G01*
X00942Y00837D02*
D01*
D01*
G75*
G03X00934I-00003J0D01*
G74*G01*
D01*
G75*
G03X00942I00003J0D01*
G74*G01*
X02253Y00175D02*
D01*
D01*
G75*
G03X02245I-00003J0D01*
G74*G01*
D01*
G75*
G03X02253I00003J0D01*
G74*G01*
X02216Y01307D02*
D01*
D01*
G75*
G03X02208I-00003J0D01*
G74*G01*
D01*
G75*
G03X02216I00003J0D01*
G74*G01*
X0062Y00402D02*
D01*
D01*
G75*
G03X00612I-00003J0D01*
G74*G01*
D01*
G75*
G03X0062I00003J0D01*
G74*G01*
X00778Y0048D02*
D01*
D01*
G75*
G03X00771I-00003J0D01*
G74*G01*
D01*
G75*
G03X00778I00003J0D01*
G74*G01*
G54D12*
X00828Y01216D02*
D01*
D01*
G75*
G03X00852I00012J0D01*
G74*G01*
G54D13*
X01729Y00215D02*
D01*
D01*
G75*
G03X0159I-00069J0D01*
G74*G01*
D01*
G75*
G03X01729I00069J0D01*
G74*G01*
X00017Y00756D02*
X00307D01*
X00017Y00404D02*
Y00756D01*
Y00404D02*
X00307D01*
Y00756*
X00017Y00215D02*
Y00404D01*
X01394Y01413D02*
X01425D01*
X01394Y01476D02*
X01425D01*
X01394Y01413D02*
Y01476D01*
X01425Y01413D02*
Y01476D01*
X01289Y01409D02*
X0132D01*
X01289Y01472D02*
X0132D01*
X01289Y01409D02*
Y01472D01*
X0132Y01409D02*
Y01472D01*
X01664Y01159D02*
X01695D01*
X01664Y01222D02*
X01695D01*
X01664Y01159D02*
Y01222D01*
X01695Y01159D02*
Y01222D01*
X01824Y00558D02*
X01855D01*
X01824Y00621D02*
X01855D01*
X01824Y00558D02*
Y00621D01*
X01855Y00558D02*
Y00621D01*
X01104Y00628D02*
X01135D01*
X01104Y00691D02*
X01135D01*
X01104Y00628D02*
Y00691D01*
X01135Y00628D02*
Y00691D01*
X01019D02*
X0105D01*
X01019Y00628D02*
X0105D01*
Y00691*
X01019Y00628D02*
Y00691D01*
X00964Y00832D02*
Y0091D01*
Y00832D02*
X01062D01*
Y0091*
X00964D02*
X01062D01*
X00932Y00689D02*
X00967D01*
X00932Y00622D02*
X00967D01*
Y00689*
X00932Y00622D02*
Y00689D01*
X01955Y00114D02*
X02026D01*
X01955Y00155D02*
X02026D01*
Y00114D02*
Y00155D01*
X01955Y00114D02*
Y00155D01*
X02143Y00226D02*
X02206D01*
Y00163D02*
Y00226D01*
X02143Y00163D02*
X02206D01*
X02143D02*
Y00226D01*
X01732Y00796D02*
X01767D01*
X01732Y00863D02*
X01767D01*
X01732Y00796D02*
Y00863D01*
X01767Y00796D02*
Y00863D01*
X02174Y01453D02*
X02221D01*
X02174Y01426D02*
X02221D01*
X02174D02*
Y01453D01*
X02221Y01426D02*
Y01453D01*
X0224Y01354D02*
Y01385D01*
X02177Y01354D02*
Y01385D01*
Y01354D02*
X0224D01*
X02177Y01385D02*
X0224D01*
X01928Y01379D02*
X01967D01*
Y0136D02*
Y01379D01*
X01928Y0136D02*
X01967D01*
X01928D02*
Y01379D01*
X02488Y00762D02*
Y01282D01*
X02275Y00762D02*
X02488D01*
X01834D02*
X02275D01*
X01834D02*
Y01282D01*
X02275*
X02488*
X02275Y00762D02*
Y01282D01*
X02036Y01357D02*
Y01392D01*
X02103Y01357D02*
Y01392D01*
X02036D02*
X02103D01*
X02036Y01357D02*
X02103D01*
X01424Y00067D02*
Y00102D01*
X01357Y00067D02*
Y00102D01*
Y00067D02*
X01424D01*
X01357Y00102D02*
X01424D01*
X01739Y00558D02*
X0177D01*
X01739Y00621D02*
X0177D01*
X01739Y00558D02*
Y00621D01*
X0177Y00558D02*
Y00621D01*
X00765Y00367D02*
Y00406D01*
X00784*
Y00367D02*
Y00406D01*
X00765Y00367D02*
X00784D01*
X00484Y00328D02*
Y00367D01*
X00465Y00328D02*
X00484D01*
X00465D02*
Y00367D01*
X00484*
X00601Y00426D02*
X00668D01*
Y00303D02*
Y00426D01*
X00601Y00303D02*
X00668D01*
X00601D02*
Y00426D01*
X00725Y00505D02*
X00824D01*
X00725Y00705D02*
X00824D01*
Y00505D02*
Y00705D01*
X00725Y00505D02*
Y00705D01*
X00614Y01276D02*
X00645D01*
X00614Y01213D02*
X00645D01*
Y01276*
X00614Y01213D02*
Y01276D01*
X0042Y00899D02*
Y0096D01*
X00329Y00899D02*
Y0096D01*
Y00899D02*
X0042D01*
X00329Y0096D02*
X0042D01*
X00362Y01049D02*
X00401D01*
X00362Y0103D02*
X00401D01*
X00362D02*
Y01049D01*
X00401Y0103D02*
Y01049D01*
X0042Y01167D02*
Y01206D01*
X00439Y01167D02*
Y01206D01*
X0042Y01167D02*
X00439D01*
X0042Y01206D02*
X00439D01*
X00216Y01289D02*
Y0132D01*
X00153Y01289D02*
Y0132D01*
Y01289D02*
X00216D01*
X00153Y0132D02*
X00216D01*
X00142Y012D02*
X00181D01*
X00142D02*
Y01219D01*
X00181*
Y012D02*
Y01219D01*
X0094Y00182D02*
Y00221D01*
X00959*
Y00182D02*
Y00221D01*
X0094Y00182D02*
X00959D01*
X00386Y00636D02*
X00427D01*
X00386Y00613D02*
X00427D01*
X00386D02*
Y00636D01*
X00427Y00613D02*
Y00636D01*
X00376Y00516D02*
X00417D01*
X00376Y00493D02*
X00417D01*
X00376D02*
Y00516D01*
X00417Y00493D02*
Y00516D01*
X01497Y01379D02*
Y0141D01*
X0156Y01379D02*
Y0141D01*
X01497D02*
X0156D01*
X01497Y01379D02*
X0156D01*
X0196Y00244D02*
X02031D01*
X0196Y00285D02*
X02031D01*
Y00244D02*
Y00285D01*
X0196Y00244D02*
Y00285D01*
X01542Y00097D02*
X01777D01*
Y00332*
X01542D02*
X01777D01*
X01542Y00097D02*
Y00332D01*
X0129Y00187D02*
Y00226D01*
X01309*
Y00187D02*
Y00226D01*
X0129Y00187D02*
X01309D01*
G54D14*
X00763Y01024D02*
Y01216D01*
X00828*
X00852*
X00917*
Y01024D02*
Y01216D01*
X00763Y01024D02*
X00917D01*
Y01205D02*
X00958D01*
Y01185D02*
Y01205D01*
X00917Y01185D02*
X00958D01*
X00917D02*
Y01205D01*
Y01155D02*
X00958D01*
Y01135D02*
Y01155D01*
X00917Y01135D02*
X00958D01*
X00917D02*
Y01155D01*
Y01105D02*
X00958D01*
Y01085D02*
Y01105D01*
X00917Y01085D02*
X00958D01*
X00917D02*
Y01105D01*
Y01055D02*
X00958D01*
Y01035D02*
Y01055D01*
X00917Y01035D02*
X00958D01*
X00917D02*
Y01055D01*
X00722Y01035D02*
X00763D01*
X00722D02*
Y01055D01*
X00763*
Y01035D02*
Y01055D01*
X00722Y01085D02*
X00763D01*
X00722D02*
Y01105D01*
X00763*
Y01085D02*
Y01105D01*
X00722Y01135D02*
X00763D01*
X00722D02*
Y01155D01*
X00763*
Y01135D02*
Y01155D01*
X00722Y01185D02*
X00763D01*
X00722D02*
Y01205D01*
X00763*
Y01185D02*
Y01205D01*
X00274Y0103D02*
Y01045D01*
X00264Y0103D02*
X00274D01*
X00264D02*
Y01045D01*
X00078Y01082D02*
X00128Y01132D01*
X00191D02*
X00205D01*
X00166D02*
X0018D01*
X0014Y01131D02*
X00154Y01132D01*
X00115Y01131D02*
X00129Y01132D01*
X00078Y01081D02*
Y01095D01*
Y01056D02*
Y0107D01*
Y01044D02*
X00079Y0103D01*
X00078Y01019D02*
X00079Y01005D01*
X00115Y00968D02*
X00129D01*
X0014D02*
X00154D01*
X00166D02*
X0018D01*
X00191D02*
X00205D01*
X00242Y01005D02*
Y01019D01*
Y0103D02*
Y01044D01*
Y01056D02*
Y0107D01*
Y01081D02*
Y01095D01*
X00078Y00968D02*
X00242D01*
Y01132*
X00078D02*
X00242D01*
X00078Y00968D02*
Y01132D01*
X0036Y01101D02*
X00379D01*
X0036Y01118D02*
X00379D01*
G54D15*
X01111Y00236D02*
X01144Y00202D01*
X01111D02*
X01144Y00236D01*
X01111Y00219D02*
X01144D01*
X01127Y00202D02*
Y00236D01*
G54D90*
X00018Y01132D02*
X00052Y01099D01*
X00018D02*
X00052Y01132D01*
X00018Y01116D02*
X00052D01*
X00035Y01099D02*
Y01132D01*
G54D102*
X01287Y00978D02*
D01*
D01*
G75*
G03X01248I-00019J0D01*
G74*G01*
D01*
G75*
G03X01287I00019J0D01*
G74*G01*
X01232Y00942D02*
X01587D01*
X01232Y01297D02*
X01587D01*
X01232Y00942D02*
Y01297D01*
X01587Y00942D02*
Y01297D01*
G54D103*
X01133Y00242D02*
D01*
D01*
G75*
G03X01157I00012J0D01*
G74*G01*
X01113Y00212D02*
Y00232D01*
X0109D02*
X01113D01*
X0109Y00212D02*
Y00232D01*
Y00212D02*
X01113D01*
Y00175D02*
Y00195D01*
X0109D02*
X01113D01*
X0109Y00175D02*
Y00195D01*
Y00175D02*
X01113D01*
Y00137D02*
Y00157D01*
X0109D02*
X01113D01*
X0109Y00137D02*
Y00157D01*
Y00137D02*
X01113D01*
X01176D02*
Y00157D01*
Y00137D02*
X012D01*
Y00157*
X01176D02*
X012D01*
X01176Y00212D02*
Y00232D01*
Y00212D02*
X012D01*
Y00232*
X01176D02*
X012D01*
X01113Y00128D02*
X01176D01*
Y00242*
X01113D02*
X01176D01*
X01113Y00128D02*
Y00242D01*
G54D104*
X00025Y00375D02*
X00064D01*
Y00355*
X00058Y00349*
X00045*
X00038Y00355*
Y00375*
X00058Y00309D02*
X00064Y00316D01*
Y00329*
X00058Y00335*
X00032*
X00025Y00329*
Y00316*
X00032Y00309*
X00064Y00296D02*
X00025D01*
Y00276*
X00032Y0027*
X00038*
X00045Y00276*
Y00296*
Y00276*
X00051Y0027*
X00058*
X00064Y00276*
Y00296*
Y00191D02*
Y00217D01*
X00025*
Y00191*
X00045Y00217D02*
Y00204D01*
X00064Y00178D02*
X00025D01*
Y00158*
X00032Y00152*
X00058*
X00064Y00158*
Y00178*
X00058Y00112D02*
X00064Y00119D01*
Y00132*
X00058Y00139*
X00032*
X00025Y00132*
Y00119*
X00032Y00112*
X00045*
Y00126*
X00064Y00073D02*
Y00099D01*
X00025*
Y00073*
X00045Y00099D02*
Y00086D01*
M02*