%FSTAX23Y23*%
%MOIN*%
%SFA1B1*%

%IPPOS*%
%AMD21*
4,1,8,-0.018300,0.012800,-0.018300,-0.012800,-0.014000,-0.017100,0.014000,-0.017100,0.018300,-0.012800,0.018300,0.012800,0.014000,0.017100,-0.014000,0.017100,-0.018300,0.012800,0.0*
1,1,0.008567,-0.014000,0.012800*
1,1,0.008567,-0.014000,-0.012800*
1,1,0.008567,0.014000,-0.012800*
1,1,0.008567,0.014000,0.012800*
%
%AMD22*
4,1,8,-0.011800,0.007400,-0.011800,-0.007400,-0.009400,-0.009800,0.009400,-0.009800,0.011800,-0.007400,0.011800,0.007400,0.009400,0.009800,-0.009400,0.009800,-0.011800,0.007400,0.0*
1,1,0.004921,-0.009400,0.007400*
1,1,0.004921,-0.009400,-0.007400*
1,1,0.004921,0.009400,-0.007400*
1,1,0.004921,0.009400,0.007400*
%
%AMD25*
4,1,8,0.026600,-0.010000,0.026600,0.010000,0.024800,0.011800,-0.024800,0.011800,-0.026600,0.010000,-0.026600,-0.010000,-0.024800,-0.011800,0.024800,-0.011800,0.026600,-0.010000,0.0*
1,1,0.003543,0.024800,-0.010000*
1,1,0.003543,0.024800,0.010000*
1,1,0.003543,-0.024800,0.010000*
1,1,0.003543,-0.024800,-0.010000*
%
%AMD37*
4,1,8,0.012800,0.018300,-0.012800,0.018300,-0.017100,0.014000,-0.017100,-0.014000,-0.012800,-0.018300,0.012800,-0.018300,0.017100,-0.014000,0.017100,0.014000,0.012800,0.018300,0.0*
1,1,0.008567,0.012800,0.014000*
1,1,0.008567,-0.012800,0.014000*
1,1,0.008567,-0.012800,-0.014000*
1,1,0.008567,0.012800,-0.014000*
%
%AMD38*
4,1,8,0.011800,-0.008000,0.011800,0.008000,0.009200,0.010600,-0.009200,0.010600,-0.011800,0.008000,-0.011800,-0.008000,-0.009200,-0.010600,0.009200,-0.010600,0.011800,-0.008000,0.0*
1,1,0.005315,0.009200,-0.008000*
1,1,0.005315,0.009200,0.008000*
1,1,0.005315,-0.009200,0.008000*
1,1,0.005315,-0.009200,-0.008000*
%
%AMD39*
4,1,8,0.007400,0.011800,-0.007400,0.011800,-0.009800,0.009400,-0.009800,-0.009400,-0.007400,-0.011800,0.007400,-0.011800,0.009800,-0.009400,0.009800,0.009400,0.007400,0.011800,0.0*
1,1,0.004921,0.007400,0.009400*
1,1,0.004921,-0.007400,0.009400*
1,1,0.004921,-0.007400,-0.009400*
1,1,0.004921,0.007400,-0.009400*
%
%AMD40*
4,1,8,-0.008000,-0.011800,0.008000,-0.011800,0.010600,-0.009200,0.010600,0.009200,0.008000,0.011800,-0.008000,0.011800,-0.010600,0.009200,-0.010600,-0.009200,-0.008000,-0.011800,0.0*
1,1,0.005315,-0.008000,-0.009200*
1,1,0.005315,0.008000,-0.009200*
1,1,0.005315,0.008000,0.009200*
1,1,0.005315,-0.008000,0.009200*
%
%ADD10C,0.007874*%
%ADD16R,0.045275X0.011811*%
%ADD17R,0.045275X0.023622*%
%ADD18O,0.009843X0.031496*%
%ADD19O,0.031496X0.009843*%
%ADD20R,0.301181X0.301181*%
G04~CAMADD=21~8~0.0~0.0~342.5~366.1~42.8~0.0~15~0.0~0.0~0.0~0.0~0~0.0~0.0~0.0~0.0~0~0.0~0.0~0.0~90.0~366.0~343.0*
%ADD21D21*%
G04~CAMADD=22~8~0.0~0.0~196.9~236.2~24.6~0.0~15~0.0~0.0~0.0~0.0~0~0.0~0.0~0.0~0.0~0~0.0~0.0~0.0~90.0~236.0~196.0*
%ADD22D22*%
%ADD23R,0.037500X0.020000*%
%ADD24R,0.035433X0.031496*%
G04~CAMADD=25~8~0.0~0.0~236.2~531.5~17.7~0.0~15~0.0~0.0~0.0~0.0~0~0.0~0.0~0.0~0.0~0~0.0~0.0~0.0~270.0~532.0~236.0*
%ADD25D25*%
%ADD26O,0.062992X0.023622*%
%ADD27R,0.087000X0.087000*%
%ADD28R,0.014000X0.034000*%
%ADD29R,0.034000X0.014000*%
%ADD30R,0.027559X0.027559*%
%ADD31R,0.057087X0.057087*%
%ADD32R,0.031496X0.015748*%
%ADD33R,0.015748X0.031496*%
%ADD34R,0.021260X0.023622*%
%ADD35R,0.078000X0.022000*%
%ADD36R,0.033465X0.019685*%
G04~CAMADD=37~8~0.0~0.0~342.5~366.1~42.8~0.0~15~0.0~0.0~0.0~0.0~0~0.0~0.0~0.0~0.0~0~0.0~0.0~0.0~0.0~342.5~366.1*
%ADD37D37*%
G04~CAMADD=38~8~0.0~0.0~212.6~236.2~26.6~0.0~15~0.0~0.0~0.0~0.0~0~0.0~0.0~0.0~0.0~0~0.0~0.0~0.0~270.0~236.0~212.0*
%ADD38D38*%
G04~CAMADD=39~8~0.0~0.0~196.9~236.2~24.6~0.0~15~0.0~0.0~0.0~0.0~0~0.0~0.0~0.0~0.0~0~0.0~0.0~0.0~0.0~196.9~236.2*
%ADD39D39*%
G04~CAMADD=40~8~0.0~0.0~212.6~236.2~26.6~0.0~15~0.0~0.0~0.0~0.0~0~0.0~0.0~0.0~0.0~0~0.0~0.0~0.0~180.0~212.0~236.0*
%ADD40D40*%
%ADD41R,0.048819X0.061417*%
%ADD42R,0.025197X0.028346*%
%ADD43R,0.034252X0.036614*%
%ADD44R,0.036614X0.034252*%
%ADD45R,0.040945X0.040157*%
%ADD46R,0.027559X0.035433*%
%ADD88R,0.023622X0.023622*%
%ADD89C,0.015748*%
%ADD90C,0.010000*%
%ADD91O,0.082677X0.039370*%
%ADD92O,0.070866X0.039370*%
%ADD93C,0.025591*%
%ADD94C,0.058976*%
%ADD95C,0.063189*%
%ADD96R,0.058976X0.058976*%
%ADD97O,0.220000X0.229000*%
%ADD98R,0.063189X0.063189*%
%ADD99C,0.022047*%
%ADD100C,0.017716*%
%ADD101C,0.019685*%
%LNmain-1*%
%LPD*%
G36*
X02449Y01575D02*
X02445Y01568D01*
X02433Y01571*
X02415Y01572*
X02396Y01571*
X02378Y01566*
X02361Y01559*
X02345Y0155*
X02331Y01538*
X02319Y01524*
X02309Y01508*
X02302Y01491*
X02298Y01472*
X02296Y01454*
Y01445*
X02298Y01427*
X02302Y01408*
X02309Y01391*
X02319Y01376*
X02331Y01361*
X02345Y01349*
X02361Y0134*
X02378Y01333*
X02396Y01328*
X02415Y01327*
X02433Y01328*
X02451Y01333*
X02468Y0134*
X02484Y01349*
X02498Y01361*
X0251Y01376*
X0252Y01391*
X02527Y01408*
X02531Y01427*
X02532Y01431*
X0254Y01431*
Y0028*
X02532Y00278*
X02525Y00289*
X02513Y00303*
X02499Y00315*
X02483Y00324*
X02466Y00331*
X02448Y00336*
X0243Y00337*
X02411Y00336*
X02393Y00331*
X02376Y00324*
X0236Y00315*
X02346Y00303*
X02334Y00289*
X02324Y00273*
X02317Y00256*
X02313Y00237*
X02311Y00219*
Y0021*
X02313Y00192*
X02317Y00173*
X02324Y00156*
X02334Y00141*
X02346Y00126*
X0236Y00114*
X02376Y00105*
X02393Y00098*
X02411Y00093*
X0243Y00092*
X02448Y00093*
X02466Y00098*
X02483Y00105*
X02499Y00114*
X02513Y00126*
X02525Y00141*
X02532Y00151*
X0254Y00149*
Y00075*
X0247Y00005*
X0007*
Y0001*
X00015Y00065*
Y0151*
X001Y01595*
X00129*
X00131Y01587*
X0012Y0158*
X00106Y01568*
X00094Y01554*
X00084Y01538*
X00077Y01521*
X00073Y01502*
X00071Y01484*
Y01475*
X00073Y01457*
X00077Y01438*
X00084Y01421*
X00094Y01406*
X00106Y01391*
X0012Y01379*
X00136Y0137*
X00153Y01363*
X00171Y01358*
X0019Y01357*
X00208Y01358*
X00226Y01363*
X00243Y0137*
X00259Y01379*
X00273Y01391*
X00285Y01406*
X00295Y01421*
X00302Y01438*
X00306Y01457*
X00308Y01475*
Y01484*
X00306Y01502*
X00302Y01521*
X00295Y01538*
X00285Y01554*
X00273Y01568*
X00259Y0158*
X00248Y01587*
X0025Y01595*
X0243*
X02449Y01575*
G37*
%LNmain-2*%
%LPC*%
G36*
X01424Y01503D02*
X01415D01*
Y0148*
X01438*
Y01488*
X01437Y01494*
X01434Y01498*
X01429Y01502*
X01424Y01503*
G37*
G36*
X01405D02*
X01395D01*
X0139Y01502*
X01385Y01498*
X01382Y01494*
X01381Y01488*
Y0148*
X01405*
Y01503*
G37*
G36*
X01319Y01498D02*
X0131D01*
Y01476*
X01333*
Y01484*
X01332Y01489*
X01329Y01494*
X01324Y01497*
X01319Y01498*
G37*
G36*
X013D02*
X0129D01*
X01285Y01497*
X0128Y01494*
X01277Y01489*
X01276Y01484*
Y01476*
X013*
Y01498*
G37*
G36*
X01438Y0147D02*
X01415D01*
Y01448*
X01424*
X01429Y01449*
X01434Y01452*
X01437Y01457*
X01438Y01462*
Y0147*
G37*
G36*
X01405D02*
X01381D01*
Y01462*
X01382Y01457*
X01385Y01452*
X0139Y01449*
X01395Y01448*
X01405*
Y0147*
G37*
G36*
X02237Y01464D02*
X0222D01*
Y01445*
X02237*
Y01464*
G37*
G36*
X01333Y01466D02*
X0131D01*
Y01444*
X01319*
X01324Y01445*
X01329Y01448*
X01332Y01453*
X01333Y01458*
Y01466*
G37*
G36*
X013D02*
X01276D01*
Y01458*
X01277Y01453*
X0128Y01448*
X01285Y01445*
X0129Y01444*
X013*
Y01466*
G37*
G36*
X01424Y01439D02*
X01395D01*
X01391Y01438*
X01387Y01435*
X01384Y01431*
X01383Y01428*
X0133*
X01327Y01431*
X01323Y01434*
X01319Y01435*
X0129*
X01286Y01434*
X01282Y01431*
X01279Y01427*
X01279Y01426*
X01149*
X01148Y01426*
X01141*
X01135Y01424*
X0113Y01419*
X01128Y01413*
Y01406*
X0113Y014*
X01135Y01395*
X01141Y01393*
X01148*
X01149Y01393*
X01279*
X01279Y01392*
X01282Y01388*
X01286Y01385*
X0129Y01384*
X01319*
X01323Y01385*
X01327Y01388*
X0133Y01392*
X01331Y01396*
X01384*
X01387Y01392*
X01391Y01389*
X01395Y01389*
X01424*
X01428Y01389*
X01432Y01392*
X01435Y01396*
X01436Y01401*
Y01427*
X01435Y01431*
X01432Y01435*
X01428Y01438*
X01424Y01439*
G37*
G36*
X02237Y01435D02*
X0222D01*
Y01415*
X02237*
Y01435*
G37*
G36*
X01493Y01423D02*
X01485D01*
X0148Y01422*
X01475Y01419*
X01472Y01414*
X01471Y01409*
Y014*
X01493*
Y01423*
G37*
G36*
X0216Y01516D02*
D01*
X0183*
X01823Y01514*
X01818Y01511*
X01748Y01441*
X01745Y01436*
X01743Y0143*
Y01411*
X01584*
X01584Y01413*
X01581Y01417*
X01577Y0142*
X01572Y01421*
X01547*
X01542Y0142*
X01538Y01417*
X01535Y01413*
X01534Y01409*
Y01392*
X01533Y01392*
X01525Y01396*
Y01409*
X01524Y01414*
X01521Y01419*
X01517Y01422*
X01511Y01423*
X01503*
Y01395*
Y01366*
X01504*
X01507Y01358*
X01502Y01353*
X01289*
X01257*
X01257*
X01111*
X01106Y01352*
X01102Y01349*
X00967Y01214*
X0094*
X00938Y01213*
X00886*
Y01211*
X00793*
Y01213*
X00722*
X00711Y01225*
X00705Y01229*
X00699Y0123*
X00655*
X00655Y01231*
X00652Y01235*
X00648Y01238*
X00644Y01239*
X00615*
X00611Y01238*
X00607Y01235*
X00604Y01231*
X00604Y0123*
X00469*
X00428Y01271*
X00423Y01274*
X00417Y01276*
X00245*
X00241Y01283*
X00242Y01285*
X00243Y0129*
Y013*
X00215*
X00188*
Y0129*
X00189Y01285*
X00189Y01285*
X00185Y01278*
X00181Y01277*
X00177Y01285*
X00178Y01286*
X00179Y0129*
Y01319*
X00178Y01323*
X00175Y01327*
X00171Y0133*
X00167Y01331*
X00141*
X00136Y0133*
X00132Y01327*
X00129Y01323*
X00129Y01319*
Y0129*
X00129Y01286*
X00132Y01282*
X00136Y01279*
X00138Y01279*
Y01267*
X00137Y01266*
X00137Y01263*
X00133Y01259*
X00129Y01254*
X00128Y01248*
Y01224*
X00127Y01223*
X00126Y01219*
Y012*
X00127Y01196*
X00129Y01193*
X0013Y01192*
Y0115*
X00107*
Y01103*
X00106*
Y01102*
X00059*
Y0108*
X00057*
Y01068*
X00084*
Y01058*
X00057*
Y01046*
Y01042*
X00084*
Y01032*
X00057*
Y0102*
X00059*
Y00997*
X00105*
Y00979*
X00122*
Y00974*
X00127*
Y00947*
X00142*
Y00974*
X00152*
Y00947*
X00168*
Y00974*
X00178*
Y00947*
X00184*
Y00937*
X00185Y00931*
X00188Y00927*
X00195Y0092*
X00199Y00917*
X00205Y00916*
X00307*
Y00891*
X00368*
X00375Y00889*
X00379*
X00404*
Y0093*
Y0097*
X00379*
X00375*
X00368Y00968*
X00307*
Y00943*
X00217*
X00212Y00949*
Y00996*
X00213*
Y00997*
X0026*
Y01026*
X00347*
X00347Y01026*
X00349Y01023*
X00352Y0102*
X00357Y0102*
X00372*
X00377Y0102*
X00381Y01021*
X00386Y01018*
X00391Y01017*
X00394*
Y0104*
Y01062*
X00391*
X00386Y01061*
X00381Y01058*
X00377Y01059*
X00372Y01059*
X00357*
X00352Y01059*
X00349Y01056*
X00347Y01053*
X00347Y01053*
X0026*
Y01084*
X00273Y01096*
X00322*
Y01084*
X00366*
Y01135*
X00322*
Y01123*
X00268*
X00262Y01122*
X00258Y01119*
X00242Y01102*
X00213*
Y01103*
X00212*
Y0115*
X00163*
Y01182*
X00164Y01183*
X0017Y01188*
X00172Y01187*
X00175*
Y0121*
Y01232*
X00172*
X00168Y01231*
X00162Y01235*
X00162Y01236*
X00169Y01243*
X0041*
X00422Y01231*
X00418Y01224*
X00415Y01223*
X00411Y01221*
X00408Y01216*
X00407Y01211*
Y01209*
X0043*
Y01199*
X00407*
Y01196*
X00408Y01191*
X00411Y01186*
X0041Y01182*
X0041Y01177*
Y01173*
X0039Y01154*
X00386Y01148*
X00385Y01142*
X00383Y01135*
X00373*
Y01084*
X00417*
Y01093*
X00684*
X0069Y01095*
X00698Y0109*
Y01074*
X00742*
Y01095*
Y01116*
X00729*
X00725Y01123*
X00727Y01126*
X00793*
Y01163*
X007*
Y01148*
X00677Y01126*
X00417*
Y01136*
X00432Y01151*
X00439*
X00443Y01152*
X00446Y01154*
X00449Y01157*
X00449Y01162*
Y01177*
X00449Y01182*
X00448Y01186*
X00451Y01191*
X00451Y01193*
X00453Y01195*
X00456Y01197*
X00459Y01198*
X00462Y01198*
X00462*
X00604*
X00604Y01196*
X00607Y01192*
X00611Y01189*
X00615Y01189*
X00644*
X00648Y01189*
X00652Y01192*
X00655Y01196*
X00655Y01198*
X00693*
X007Y01191*
Y01176*
X00793*
Y01178*
X00823*
Y01035*
X00825Y01029*
X00828Y01023*
X00951Y009*
Y00876*
X00961*
Y00866*
X00951*
Y00854*
X00789Y00692*
X0078Y00694*
X00769*
X00759Y00691*
X0075Y00686*
X00743Y00679*
X00738Y0067*
X00735Y0066*
Y00649*
X00738Y00639*
X00743Y0063*
X0075Y00623*
X00759Y00618*
X00769Y00615*
X0078*
X0079Y00618*
X00797Y00622*
X00806Y00613*
X00811Y0061*
X00817Y00608*
X00923*
Y006*
X00933*
Y00235*
X00933Y00234*
X0093Y00231*
X0093Y00227*
Y00212*
X0093Y00208*
X00933Y00205*
X00929Y00198*
X00928Y00196*
X00927Y00191*
Y00189*
X0095*
X00972*
Y00191*
X00971Y00196*
X00971Y00197*
X00975Y00203*
X01018*
X01024Y00205*
X01026Y00206*
X01058*
X01066Y00205*
Y0019*
X01094*
Y0018*
X01066*
Y00165*
X01068*
Y00129*
X01098*
X01154Y00073*
X01159Y0007*
X01166Y00068*
X01335*
Y00058*
X01385*
Y00111*
X01335*
Y00101*
X01172*
X0113Y00142*
X01131Y00147*
X0114Y00157*
X01144Y00162*
X01145Y00168*
Y00201*
X01144Y00207*
X0114Y00212*
X01131Y00222*
X01126Y00225*
X01122Y00226*
X01121Y00227*
Y0024*
X01068*
Y00238*
X01021*
X01015Y00237*
X01013Y00236*
X00966*
Y006*
X00976*
Y00611*
X01009*
X01012Y00607*
X01016Y00604*
X0102Y00604*
X01049*
X01053Y00604*
X01057Y00607*
X0106Y00611*
X01061Y00616*
Y00642*
X0106Y00646*
X01057Y0065*
X01053Y00653*
X01049Y00654*
X0102*
X01016Y00653*
X01012Y0065*
X01009Y00646*
X01008Y00643*
X00976*
Y0065*
X00923*
Y00641*
X00824*
X00814Y00651*
Y0066*
X00812Y00669*
X00962Y00819*
X00998*
Y00794*
X01Y00788*
X01003Y00783*
X01093Y00693*
Y00677*
X01094Y00673*
X01097Y00669*
X01101Y00666*
X01105Y00665*
X01117*
X01117Y00664*
X01113Y00656*
X01105*
X011Y00655*
X01095Y00652*
X01092Y00647*
X01091Y00642*
Y00634*
X0112*
Y00629*
X01125*
Y00601*
X01134*
X01139Y00602*
X01144Y00606*
X01147Y0061*
X01148Y00616*
Y0063*
X01155Y00633*
X01169Y00619*
Y0043*
X0117Y00424*
X01173Y00419*
X01179Y00413*
Y0024*
X01168*
Y00204*
X01221*
Y00208*
X01274*
X01278Y00202*
X01278Y00201*
X01277Y00196*
Y00194*
X013*
X01322*
Y00196*
X01321Y00201*
X0132Y00203*
X01316Y0021*
X01319Y00213*
X01319Y00217*
Y00229*
X01319Y00229*
Y00261*
X01379Y0032*
X0138*
X01387Y00323*
X0139Y00326*
X01391Y00328*
X014Y00328*
X014Y00328*
X01407Y00326*
X01537*
X01541Y0032*
X01548Y00313*
X01555Y00309*
Y00124*
X01534*
Y00101*
X01446*
Y00111*
X01396*
Y00058*
X01446*
Y00068*
X01534*
Y00049*
X01608*
Y00124*
X01587*
Y00309*
X01594Y00313*
X01601Y0032*
X01606Y00328*
X01608Y00338*
Y00347*
X01606Y00357*
X01601Y00365*
X01594Y00372*
X01585Y00377*
X01576Y0038*
X01566*
X01556Y00377*
X01548Y00372*
X01541Y00365*
X01537Y00359*
X01413*
X01256Y00516*
Y00625*
X01254Y00631*
X01251Y00636*
X01222Y00665*
Y00686*
X01229Y00689*
X0127Y00648*
X0127Y00645*
X01271Y00637*
X01276Y0063*
X01282Y00626*
X0129Y00624*
X01329*
X01337Y00626*
X01343Y0063*
X01348Y00637*
X01349Y00645*
X01348Y00652*
X01343Y00659*
X01337Y00663*
X01329Y00665*
X01296*
X01294Y00665*
X01294Y00667*
X01299Y00674*
X01329*
X01337Y00676*
X01343Y0068*
X01348Y00687*
X01349Y00695*
X01348Y00702*
X01343Y00709*
X01337Y00713*
X01329Y00715*
X01314*
Y00792*
X01322Y00795*
X01442Y00675*
X01447Y00672*
X01452Y00671*
X01478*
X01553Y00596*
X01553Y00595*
X01555Y00587*
X01559Y0058*
X01566Y00576*
X01573Y00574*
X01613*
X01614Y00575*
X01621Y0057*
X01614Y00564*
X01613Y00565*
X01573*
X01566Y00563*
X01559Y00559*
X01558Y00558*
X0152*
X01461Y00616*
Y00618*
X01459Y00624*
X01454Y00629*
X01448Y00631*
X01441*
X01435Y00629*
X0143Y00624*
X01428Y00618*
Y00611*
X01425Y00607*
X01345*
X01343Y00609*
X01337Y00613*
X01329Y00615*
X0129*
X01282Y00613*
X01276Y00609*
X01271Y00602*
X0127Y00595*
X01271Y00587*
X01276Y0058*
X01282Y00576*
X0129Y00574*
Y00567*
X01281Y00565*
X01274Y0056*
X01269Y00553*
X01269Y0055*
X0135*
X0135Y00553*
X01345Y0056*
X01338Y00565*
X01329Y00567*
Y00574*
X01337Y00576*
X01343Y0058*
X01345Y00582*
X0143*
X015Y00512*
X01504Y0051*
X01509Y00509*
X01622*
X01627Y0051*
X01631Y00512*
X01647Y00528*
X0165Y00532*
X01651Y00537*
Y00604*
X01729*
X01729Y00603*
X01732Y00599*
X01736Y00596*
X0174Y00595*
X01769*
X01773Y00596*
X01777Y00599*
X0178Y00603*
X0178Y00604*
X01814*
X01814Y00603*
X01817Y00599*
X01821Y00596*
X01825Y00595*
X01854*
X01858Y00596*
X01862Y00599*
X01865Y00603*
X01866Y00607*
Y00633*
X01865Y00638*
X01862Y00642*
X01858Y00645*
X01854Y00645*
X01825*
X01821Y00645*
X01817Y00642*
X01814Y00638*
X01814Y00636*
X0178*
X0178Y00638*
X01777Y00642*
X01773Y00645*
X01769Y00645*
X01768*
Y00774*
X01776*
Y00824*
X01748*
X01745Y00827*
X01749Y00835*
X01776*
Y00848*
X01838*
Y00818*
X01836Y00811*
Y0081*
Y00792*
X0186*
Y00787*
X01865*
Y00764*
X01883*
Y00766*
X01936*
X01944*
X01952*
X01976*
X01984*
X02031*
X02039*
X02041Y00759*
Y00745*
X02013Y00716*
X02011*
X02005Y00714*
X02Y00709*
X01998Y00703*
Y00696*
X02Y0069*
X02005Y00685*
X02011Y00683*
X02018*
X02024Y00685*
X02029Y0069*
X02031Y00696*
Y00698*
X02064Y0073*
X02067Y00734*
X02067Y00735*
X02075Y00734*
Y00687*
X02073Y00683*
Y00676*
X02075Y0067*
X0208Y00665*
X02086Y00663*
X02093*
X02099Y00665*
X02104Y0067*
X02106Y00676*
Y00683*
X02104Y00689*
X02101Y00692*
Y00766*
X02133*
X02141*
X02188*
X02196*
X02204*
X02226*
Y00764*
X02244*
Y00787*
X02254*
Y00764*
X02267*
Y00762*
X02268Y00759*
X02269Y00756*
X02272Y00754*
X02275Y00754*
X02488*
X02491Y00754*
X02493Y00756*
X02495Y00759*
X02496Y00762*
Y01282*
X02495Y01285*
X02493Y01287*
X02491Y01289*
X02488Y0129*
X02275*
X02272Y01289*
X02269Y01287*
X02268Y01285*
X02267Y01282*
Y0128*
X02254*
Y01256*
X02244*
Y0128*
X02217*
Y01254*
Y01228*
X02222*
Y01216*
X02247*
Y01206*
X02222*
Y01193*
Y01184*
X02247*
Y01174*
X02222*
Y01161*
Y01153*
X02247*
Y01143*
X02222*
Y0113*
Y01121*
X02247*
Y01111*
X02222*
Y01098*
Y0109*
X02247*
Y0108*
X02222*
Y01067*
Y01058*
X02247*
Y01048*
X02222*
Y01035*
Y01027*
X02247*
Y01017*
X02222*
Y01004*
Y00995*
X02247*
Y00985*
X02222*
Y00972*
Y00964*
X02247*
Y00954*
X02222*
Y00941*
Y00932*
X02247*
Y00922*
X02222*
Y00909*
Y00901*
X02247*
Y00891*
X02222*
Y00878*
Y00869*
X02247*
Y00859*
X02222*
Y00846*
Y00838*
X02247*
Y00828*
X02222*
Y00815*
X02215Y00813*
X02196*
X02188*
X02141*
X02133*
X02125*
X02078*
X0207*
X02062*
X02039*
X02031*
X01984*
X01976*
X01968*
X01944*
X01936*
X01891*
X01885Y00817*
Y00821*
Y00849*
Y00856*
Y0088*
Y00912*
Y00919*
Y00943*
Y00951*
Y00975*
Y01006*
Y01014*
Y01037*
Y01045*
Y01069*
Y011*
Y01108*
Y0113*
X01887*
Y01143*
X01862*
X01836*
Y0113*
X01838*
Y011*
Y01093*
Y01069*
Y01037*
Y0103*
Y01006*
Y00998*
Y00975*
Y00943*
Y00935*
Y00912*
Y00904*
Y0088*
X01776*
Y00885*
X01731*
Y01187*
X01729Y01193*
X01726Y01198*
X01706Y01218*
Y01225*
X01771Y0129*
X01774Y01295*
X01776Y01301*
Y014*
Y01423*
X01836Y01483*
X02154*
X02164Y01473*
Y01462*
X02159*
Y01417*
X02163*
Y01395*
X0216Y01395*
X02156Y01392*
X02154Y01388*
X02154Y01388*
X02125*
Y01401*
X02075*
Y01348*
X02125*
Y01356*
X02133*
X02136Y01348*
X02134Y01345*
X02133Y01339*
Y01278*
X02078*
X0207*
X02062*
X02039*
X02031*
X02008*
Y013*
X02006Y01307*
X02003Y01312*
X01981Y01334*
Y01355*
X01982Y01356*
X01983Y01358*
X02014*
Y01348*
X02064*
Y01401*
X02014*
Y01391*
X01968*
X01962Y01389*
X01958*
X01954Y01389*
X0195Y01386*
X01943Y0139*
X01942Y01391*
X01937Y01392*
X01935*
Y0137*
Y01347*
X01937*
X01941Y01348*
X01942Y01348*
X01949Y01344*
Y01327*
X0195Y01321*
X01954Y01316*
X01975Y01294*
Y01278*
X01944*
X01936*
X01915*
Y0128*
X01902*
Y01254*
Y01228*
X01915*
Y0123*
X01944*
X01952*
X01976*
X01984*
X02031*
X02039*
X02047*
X0207*
X02078*
X02133*
X02141*
X02163*
Y01228*
X02175*
Y01254*
Y0128*
X02165*
Y01333*
X02176Y01343*
X02191*
X02196Y01344*
X022Y01347*
X02202Y01351*
X02203Y01355*
Y01384*
X02202Y01388*
X022Y01392*
X02196Y01395*
X02195Y01395*
Y01415*
X0221*
Y0144*
Y01464*
X02196*
Y0148*
X02195Y01486*
X02191Y01491*
X02172Y01511*
X02166Y01514*
X02165Y01515*
X0216Y01516*
G37*
G36*
X02252Y01398D02*
X02245D01*
Y01375*
X02267*
Y01384*
X02266Y01389*
X02263Y01394*
X02258Y01397*
X02252Y01398*
G37*
G36*
X01925Y01392D02*
X01922D01*
X01917Y01391*
X01913Y01388*
X0191Y01384*
X01909Y01379*
Y01375*
X01925*
Y01392*
G37*
G36*
X02235Y01398D02*
X02227D01*
X02221Y01397*
X02216Y01394*
X02213Y01389*
X02212Y01384*
Y01375*
X02235*
Y01398*
G37*
G36*
X01493Y0139D02*
X01471D01*
Y0138*
X01472Y01375*
X01475Y0137*
X0148Y01367*
X01485Y01366*
X01493*
Y0139*
G37*
G36*
X01925Y01365D02*
X01909D01*
Y0136*
X0191Y01355*
X01913Y01351*
X01917Y01348*
X01922Y01347*
X01925*
Y01365*
G37*
G36*
X02267D02*
X02245D01*
Y01341*
X02252*
X02258Y01342*
X02263Y01345*
X02266Y0135*
X02267Y01355*
Y01365*
G37*
G36*
X02235D02*
X02212D01*
Y01355*
X02213Y0135*
X02216Y01345*
X02221Y01342*
X02227Y01341*
X02235*
Y01365*
G37*
G36*
X00228Y01333D02*
X0022D01*
Y0131*
X00243*
Y01319*
X00242Y01324*
X00238Y01329*
X00234Y01332*
X00228Y01333*
G37*
G36*
X0021D02*
X00202D01*
X00197Y01332*
X00192Y01329*
X00189Y01324*
X00188Y01319*
Y0131*
X0021*
Y01333*
G37*
G36*
X00644Y01303D02*
X00635D01*
Y0128*
X00658*
Y01288*
X00657Y01294*
X00654Y01298*
X00649Y01302*
X00644Y01303*
G37*
G36*
X00625D02*
X00615D01*
X0061Y01302*
X00605Y01298*
X00602Y01294*
X00601Y01288*
Y0128*
X00625*
Y01303*
G37*
G36*
X01855Y0128D02*
X01836D01*
Y01261*
X01855*
Y0128*
G37*
G36*
X00658Y0127D02*
X00635D01*
Y01248*
X00644*
X00649Y01249*
X00654Y01252*
X00657Y01257*
X00658Y01262*
Y0127*
G37*
G36*
X00625D02*
X00601D01*
Y01262*
X00602Y01257*
X00605Y01252*
X0061Y01249*
X00615Y01248*
X00625*
Y0127*
G37*
G36*
X02207Y0128D02*
X02185D01*
Y01254*
Y01228*
X02207*
Y01254*
Y0128*
G37*
G36*
X00187Y01232D02*
X00185D01*
Y01215*
X002*
Y01219*
X00199Y01224*
X00196Y01228*
X00192Y01231*
X00187Y01232*
G37*
G36*
X01925Y01215D02*
Y012D01*
X0194*
X01937Y01206*
X01931Y01212*
X01925Y01215*
G37*
G36*
X01915D02*
X01908Y01212D01*
X01902Y01206*
X01899Y012*
X01915*
Y01215*
G37*
G36*
X002Y01205D02*
X00185D01*
Y01187*
X00187*
X00192Y01188*
X00196Y01191*
X00199Y01195*
X002Y012*
Y01205*
G37*
G36*
X02165Y0119D02*
Y01175D01*
X0218*
X02177Y01181*
X02171Y01187*
X02165Y0119*
G37*
G36*
X02155D02*
X02148Y01187D01*
X02142Y01181*
X02139Y01175*
X02155*
Y0119*
G37*
G36*
X0194Y0119D02*
X01925D01*
Y01174*
X01931Y01177*
X01937Y01183*
X0194Y0119*
G37*
G36*
X01915D02*
X01899D01*
X01902Y01183*
X01908Y01177*
X01915Y01174*
Y0119*
G37*
G36*
X01892Y0128D02*
X01865D01*
Y01256*
X0186*
Y01251*
X01836*
Y01233*
Y01232*
X01838Y01225*
Y01224*
Y01195*
Y01187*
Y01166*
X01836*
Y01153*
X01862*
X01887*
Y01166*
X01885*
Y01195*
Y01203*
Y01226*
X01892Y01228*
Y01254*
Y0128*
G37*
G36*
X0218Y01165D02*
X02165D01*
Y01149*
X02171Y01152*
X02177Y01158*
X0218Y01165*
G37*
G36*
X02155D02*
X02139D01*
X02142Y01158*
X02148Y01152*
X02155Y01149*
Y01165*
G37*
G36*
X01972Y01138D02*
X01938D01*
Y01105*
X01972*
Y01138*
G37*
G36*
X00796Y01116D02*
X00752D01*
Y011*
X00796*
Y01116*
G37*
G36*
Y0109D02*
X00752D01*
Y01074*
X00796*
Y0109*
G37*
G36*
Y01066D02*
X00752D01*
Y0105*
X00796*
Y01066*
G37*
G36*
X00742D02*
X00698D01*
Y0105*
X00742*
Y01066*
G37*
G36*
X00406Y01062D02*
X00404D01*
Y01045*
X00419*
Y01049*
X00418Y01054*
X00416Y01058*
X00411Y01061*
X00406Y01062*
G37*
G36*
X00796Y0104D02*
X00752D01*
Y01024*
X00796*
Y0104*
G37*
G36*
X00742D02*
X00698D01*
Y01024*
X00742*
Y0104*
G37*
G36*
X00419Y01035D02*
X00404D01*
Y01017*
X00406*
X00411Y01018*
X00416Y01021*
X00418Y01025*
X00419Y0103*
Y01035*
G37*
G36*
X00117Y00969D02*
X00105D01*
Y00947*
X00117*
Y00969*
G37*
G36*
X00414Y0097D02*
Y00935D01*
X00444*
Y0097*
X00414*
G37*
G36*
X02171Y00939D02*
X02137D01*
Y00905*
X02171*
Y00939*
G37*
G36*
X01972D02*
X01938D01*
Y00905*
X01972*
Y00939*
G37*
G36*
X02016Y01138D02*
X02008D01*
X01982*
Y011*
X01977*
Y01095*
X01938*
Y01068*
Y01061*
Y01053*
Y01027*
X01977*
Y01017*
X01938*
Y0099*
Y00983*
Y00975*
Y00949*
X01977*
Y00944*
X01982*
Y00905*
X02008*
X02015*
X02023*
X0205*
Y00944*
X0206*
Y00905*
X02086*
X02093*
X02101*
X02127*
Y00944*
X02132*
Y00949*
X02171*
Y00975*
Y00983*
Y0099*
Y01017*
X02132*
Y01027*
X02171*
Y0106*
X02168Y01068*
X02168Y01068*
X02169Y01071*
Y01104*
X02168Y01107*
X02166Y0111*
X02143Y01134*
X0214Y01135*
X02137Y01136*
X02104*
X02101Y01136*
X02101Y01135*
X02093Y01138*
X0206*
Y011*
X0205*
Y01138*
X02023*
X02016*
G37*
G36*
X00444Y00925D02*
X00414D01*
Y00889*
X00444*
Y00925*
G37*
G36*
X01965Y0088D02*
Y00865D01*
X0198*
X01977Y00871*
X01971Y00877*
X01965Y0088*
G37*
G36*
X01955D02*
X01948Y00877D01*
X01942Y00871*
X01939Y00865*
X01955*
Y0088*
G37*
G36*
X0198Y00855D02*
X01965D01*
Y00839*
X01971Y00842*
X01977Y00848*
X0198Y00855*
G37*
G36*
X01955D02*
X01939D01*
X01942Y00848*
X01948Y00842*
X01955Y00839*
Y00855*
G37*
G36*
X01855Y00782D02*
X01836D01*
Y00764*
X01855*
Y00782*
G37*
G36*
X00306Y0078D02*
X00289D01*
Y00755*
X00335*
X00335Y00757*
X00332Y00765*
X00327Y00771*
X00321Y00776*
X00313Y00779*
X00306Y0078*
G37*
G36*
X00279D02*
X00262D01*
X00255Y00779*
X00247Y00776*
X00241Y00771*
X00236Y00765*
X00233Y00757*
X00233Y00755*
X00279*
Y0078*
G37*
G36*
X00135D02*
X00125D01*
Y00755*
X00165*
X00164Y00757*
X00161Y00765*
X00156Y00771*
X0015Y00776*
X00143Y00779*
X00135Y0078*
G37*
G36*
X00115D02*
X00104D01*
X00096Y00779*
X00089Y00776*
X00083Y00771*
X00078Y00765*
X00075Y00757*
X00074Y00755*
X00115*
Y0078*
G37*
G36*
X00165Y00745D02*
X00125D01*
Y0072*
X00135*
X00143Y00721*
X0015Y00724*
X00156Y00728*
X00161Y00735*
X00164Y00742*
X00165Y00745*
G37*
G36*
X00115D02*
X00074D01*
X00075Y00742*
X00078Y00735*
X00083Y00728*
X00089Y00724*
X00096Y00721*
X00104Y0072*
X00115*
Y00745*
G37*
G36*
X01049Y00718D02*
X0104D01*
Y00695*
X01063*
Y00703*
X01062Y00709*
X01059Y00713*
X01054Y00717*
X01049Y00718*
G37*
G36*
X0103D02*
X0102D01*
X01015Y00717*
X0101Y00713*
X01007Y00709*
X01006Y00703*
Y00695*
X0103*
Y00718*
G37*
G36*
X01063Y00685D02*
X0104D01*
Y00663*
X01049*
X01054Y00664*
X01059Y00667*
X01062Y00672*
X01063Y00677*
Y00685*
G37*
G36*
X0103D02*
X01006D01*
Y00677*
X01007Y00672*
X0101Y00667*
X01015Y00664*
X0102Y00663*
X0103*
Y00685*
G37*
G36*
X00958Y00761D02*
X00951D01*
X00945Y00759*
X0094Y00754*
X00938Y00748*
Y00743*
X00937Y00742*
X00936Y00737*
Y00711*
X00923*
Y00661*
X00976*
Y00711*
X00963*
Y0073*
X00964Y0073*
X00969Y00735*
X00971Y00741*
Y00748*
X00969Y00754*
X00964Y00759*
X00958Y00761*
G37*
G36*
X0228Y00635D02*
Y0062D01*
X02295*
X02292Y00626*
X02286Y00632*
X0228Y00635*
G37*
G36*
X0227D02*
X02263Y00632D01*
X02257Y00626*
X02254Y0062*
X0227*
Y00635*
G37*
G36*
X01115Y00624D02*
X01091D01*
Y00616*
X01092Y0061*
X01095Y00606*
X011Y00602*
X01105Y00601*
X01115*
Y00624*
G37*
G36*
X02295Y0061D02*
X0228D01*
Y00594*
X02286Y00597*
X02292Y00603*
X02295Y0061*
G37*
G36*
X0227D02*
X02254D01*
X02257Y00603*
X02263Y00597*
X0227Y00594*
Y0061*
G37*
G36*
X01854Y00586D02*
X01845D01*
Y00564*
X01868*
Y00572*
X01867Y00577*
X01864Y00582*
X01859Y00585*
X01854Y00586*
G37*
G36*
X01769D02*
X0176D01*
Y00564*
X01783*
Y00572*
X01782Y00577*
X01779Y00582*
X01774Y00585*
X01769Y00586*
G37*
G36*
X01835D02*
X01825D01*
X0182Y00585*
X01815Y00582*
X01812Y00577*
X01811Y00572*
Y00564*
X01835*
Y00586*
G37*
G36*
X0175D02*
X0174D01*
X01735Y00585*
X0173Y00582*
X01727Y00577*
X01726Y00572*
Y00564*
X0175*
Y00586*
G37*
G36*
X01868Y00554D02*
X01845D01*
Y00531*
X01854*
X01859Y00532*
X01864Y00536*
X01867Y0054*
X01868Y00546*
Y00554*
G37*
G36*
X01835D02*
X01811D01*
Y00546*
X01812Y0054*
X01815Y00536*
X0182Y00532*
X01825Y00531*
X01835*
Y00554*
G37*
G36*
X01783D02*
X0176D01*
Y00531*
X01769*
X01774Y00532*
X01779Y00536*
X01782Y0054*
X01783Y00546*
Y00554*
G37*
G36*
X0175D02*
X01726D01*
Y00546*
X01727Y0054*
X0173Y00536*
X01735Y00532*
X0174Y00531*
X0175*
Y00554*
G37*
G36*
X0135Y0054D02*
X01315D01*
Y00522*
X01329*
X01338Y00524*
X01345Y00529*
X0135Y00536*
X0135Y0054*
G37*
G36*
X01305D02*
X01269D01*
X01269Y00536*
X01274Y00529*
X01281Y00524*
X0129Y00522*
X01305*
Y0054*
G37*
G36*
X0108Y00515D02*
Y005D01*
X01095*
X01092Y00506*
X01086Y00512*
X0108Y00515*
G37*
G36*
X0107D02*
X01063Y00512D01*
X01057Y00506*
X01054Y005*
X0107*
Y00515*
G37*
G36*
X00335Y00745D02*
X00233D01*
X00233Y00742*
X00236Y00735*
X00241Y00728*
X00247Y00724*
X00255Y00721*
X00256Y00721*
X00257Y00713*
X00253Y00711*
X00247Y00705*
X00244Y00697*
Y00689*
X00247Y00682*
X00253Y00676*
X0026Y00673*
X00268*
X00269Y00673*
X00276Y00669*
Y00615*
Y00576*
Y00536*
Y00491*
X00269Y00486*
X00268Y00486*
X0026*
X00253Y00483*
X00247Y00478*
X00244Y0047*
Y00462*
X00247Y00454*
X00253Y00448*
X00257Y00447*
X00256Y00439*
X00255Y00438*
X00247Y00435*
X00241Y00431*
X00236Y00424*
X00233Y00417*
X00233Y00415*
X00335*
X00335Y00417*
X00332Y00424*
X00336Y00432*
X00339*
Y00452*
X00346Y00455*
X00431Y0037*
Y0035*
X00432Y00344*
X00436Y00339*
X00446Y00328*
X00451Y00325*
X00455Y00324*
Y00322*
X00455Y00318*
X00458Y00315*
X00461Y00312*
X00465Y00312*
X00476*
X00479Y00311*
X00555*
X00556Y0031*
X00559Y00308*
X00563Y00307*
X00613*
X00616Y00308*
X0062Y0031*
X00622Y00313*
X00622Y00317*
Y00318*
X00625Y0032*
X00639Y00333*
X00647Y0033*
Y00317*
X00647Y00313*
X00649Y0031*
X00653Y00308*
X00656Y00307*
X00706*
X0071Y00308*
X00713Y0031*
X00715Y00313*
X00716Y00317*
Y00337*
X00715Y00341*
X00713Y00344*
X0071Y00346*
X00706Y00347*
X00656*
X00654Y00346*
X00649Y00349*
X00646Y00351*
Y00378*
X00649Y0038*
X00654Y00382*
X00656Y00382*
X00706*
X0071Y00383*
X00713Y00385*
X00714Y00386*
X00747*
X00748Y00385*
X00753Y00378*
X00752Y00376*
Y00374*
X00775*
X00797*
Y00376*
X00796Y00381*
X00795Y00383*
X00791Y0039*
X00794Y00393*
X00794Y00397*
Y00412*
X00794Y00416*
X00791Y00419*
X00791Y0042*
Y00515*
X00814*
Y00594*
X00735*
Y00515*
X00758*
Y0042*
X00758Y00419*
X00757Y00418*
X00714*
X00713Y00419*
X0071Y00421*
X00706Y00422*
X00656*
X00653Y00421*
X00649Y00419*
X00647Y00416*
X00647Y00412*
Y00403*
X00639Y004*
X00632Y00406*
X00627Y00409*
X00622Y0041*
Y00412*
X00622Y00416*
X0062Y00419*
X00616Y00421*
X00613Y00422*
X00604*
Y0059*
X00603Y00596*
X00599Y00602*
X00515Y00685*
X0051Y00689*
X00504Y0069*
X00339*
Y00701*
X00306*
Y00711*
X00339*
Y00727*
X00336*
X00332Y00735*
X00335Y00742*
X00335Y00745*
G37*
G36*
X01095Y0049D02*
X0108D01*
Y00474*
X01086Y00477*
X01092Y00483*
X01095Y0049*
G37*
G36*
X0107D02*
X01054D01*
X01057Y00483*
X01063Y00477*
X0107Y00474*
Y0049*
G37*
G36*
X00135Y00439D02*
X00125D01*
Y00415*
X00165*
X00164Y00417*
X00161Y00424*
X00156Y00431*
X0015Y00435*
X00143Y00438*
X00135Y00439*
G37*
G36*
X00115D02*
X00104D01*
X00096Y00438*
X00089Y00435*
X00083Y00431*
X00078Y00424*
X00075Y00417*
X00074Y00415*
X00115*
Y00439*
G37*
G36*
X00335Y00405D02*
X00289D01*
Y0038*
X00306*
X00313Y00381*
X00321Y00384*
X00327Y00388*
X00332Y00395*
X00335Y00402*
X00335Y00405*
G37*
G36*
X00279D02*
X00233D01*
X00233Y00402*
X00236Y00395*
X00241Y00388*
X00247Y00384*
X00255Y00381*
X00262Y0038*
X00279*
Y00405*
G37*
G36*
X00165D02*
X00125D01*
Y0038*
X00135*
X00143Y00381*
X0015Y00384*
X00156Y00388*
X00161Y00395*
X00164Y00402*
X00165Y00405*
G37*
G36*
X00115D02*
X00074D01*
X00075Y00402*
X00078Y00395*
X00083Y00388*
X00089Y00384*
X00096Y00381*
X00104Y0038*
X00115*
Y00405*
G37*
G36*
X00797Y00364D02*
X0078D01*
Y00349*
X00784*
X00789Y0035*
X00793Y00353*
X00796Y00357*
X00797Y00362*
Y00364*
G37*
G36*
X0077D02*
X00752D01*
Y00362*
X00753Y00357*
X00756Y00353*
X0076Y0035*
X00765Y00349*
X0077*
Y00364*
G37*
G36*
X01753Y00382D02*
X01753D01*
Y00347*
X01788*
Y00348*
X01785Y00358*
X0178Y00367*
X01772Y00374*
X01763Y00379*
X01753Y00382*
G37*
G36*
X01743D02*
X01743D01*
X01733Y00379*
X01724Y00374*
X01716Y00367*
X01711Y00358*
X01709Y00348*
Y00347*
X01743*
Y00382*
G37*
G36*
X01788Y00337D02*
X01753D01*
Y00303*
X01753*
X01763Y00306*
X01772Y00311*
X0178Y00318*
X01785Y00327*
X01788Y00337*
Y00337*
G37*
G36*
X01743D02*
X01709D01*
Y00337*
X01711Y00327*
X01716Y00318*
X01724Y00311*
X01733Y00306*
X01743Y00303*
X01743*
Y00337*
G37*
G36*
X02234Y00232D02*
X02184D01*
Y00202*
X02182Y00195*
Y00189*
Y0018*
X02236*
Y00195*
X02234Y00202*
Y00203*
Y00232*
G37*
G36*
X01322Y00184D02*
X01305D01*
Y00169*
X01309*
X01314Y0017*
X01318Y00173*
X01321Y00177*
X01322Y00182*
Y00184*
G37*
G36*
X01295D02*
X01277D01*
Y00182*
X01278Y00177*
X01281Y00173*
X01285Y0017*
X0129Y00169*
X01295*
Y00184*
G37*
G36*
X00972Y00179D02*
X00955D01*
Y00164*
X00959*
X00964Y00165*
X00968Y00168*
X00971Y00172*
X00972Y00177*
Y00179*
G37*
G36*
X00945D02*
X00927D01*
Y00177*
X00928Y00172*
X00931Y00168*
X00935Y00165*
X0094Y00164*
X00945*
Y00179*
G37*
G36*
X02236Y0017D02*
X02214D01*
Y00155*
X02236*
Y0017*
G37*
G36*
X02204D02*
X02182D01*
Y00155*
X02204*
Y0017*
G37*
G36*
X01953Y00441D02*
X01946D01*
X0194Y00439*
X01935Y00434*
X01933Y00428*
Y00421*
X01933Y0042*
Y00282*
X01935Y00275*
X01938Y0027*
X01938Y0027*
Y00237*
X01988*
X01995*
X02003*
X0203*
X02064Y00203*
X02069Y00199*
X02075Y00198*
X0211*
X02115Y00193*
Y00189*
Y0018*
X02086Y00151*
X02048*
Y00162*
X01998*
X01991*
X01983*
X01956*
X01886Y00233*
Y00375*
X01886Y00376*
Y00383*
X01884Y00389*
X01879Y00394*
X01873Y00396*
X01866*
X0186Y00394*
X01855Y00389*
X01853Y00383*
Y00376*
X01853Y00375*
Y00227*
X01855Y0022*
X01858Y00215*
X01933Y0014*
Y00107*
X01983*
X0199*
X01998*
X02048*
Y00118*
X02093*
X02099Y0012*
X02104Y00123*
X02138Y00157*
X02165*
Y00195*
Y002*
Y00232*
X02115*
Y0023*
X02082*
X02053Y00259*
Y00292*
X02003*
X01996*
X01988*
X01966*
Y0042*
X01966Y00421*
Y00428*
X01964Y00434*
X01959Y00439*
X01953Y00441*
G37*
G36*
X01221Y00165D02*
X01168D01*
Y00129*
X01221*
Y00165*
G37*
G36*
X01753Y00126D02*
X01753D01*
Y00092*
X01788*
Y00092*
X01785Y00102*
X0178Y00111*
X01772Y00118*
X01763Y00123*
X01753Y00126*
G37*
G36*
X01743D02*
X01743D01*
X01733Y00123*
X01724Y00118*
X01716Y00111*
X01711Y00102*
X01709Y00092*
Y00092*
X01743*
Y00126*
G37*
G36*
X00235Y00297D02*
X00216Y00296D01*
X00198Y00291*
X00181Y00284*
X00165Y00275*
X00151Y00263*
X00139Y00249*
X00129Y00233*
X00122Y00216*
X00118Y00197*
X00116Y00179*
Y0017*
X00118Y00152*
X00122Y00133*
X00129Y00116*
X00139Y00101*
X00151Y00086*
X00165Y00074*
X00181Y00065*
X00198Y00058*
X00216Y00053*
X00235Y00052*
X00253Y00053*
X00271Y00058*
X00288Y00065*
X00304Y00074*
X00318Y00086*
X0033Y00101*
X0034Y00116*
X00347Y00133*
X00351Y00152*
X00353Y0017*
Y00179*
X00351Y00197*
X00347Y00216*
X0034Y00233*
X0033Y00249*
X00318Y00263*
X00304Y00275*
X00288Y00284*
X00271Y00291*
X00253Y00296*
X00235Y00297*
G37*
G36*
X01788Y00082D02*
X01753D01*
Y00047*
X01753*
X01763Y0005*
X01772Y00055*
X0178Y00062*
X01785Y00071*
X01788Y00081*
Y00082*
G37*
G36*
X01743D02*
X01709D01*
Y00081*
X01711Y00071*
X01716Y00062*
X01724Y00055*
X01733Y0005*
X01743Y00047*
X01743*
Y00082*
G37*
%LNmain-3*%
%LPD*%
G36*
X0125Y0131D02*
X0125Y0131D01*
X01249Y01305*
Y01288*
X01247Y01282*
X01241Y0128*
X01236*
X01235Y0128*
X01235Y0128*
X01224*
X01219Y01279*
X01219Y01279*
X01128*
X01124Y01284*
X01118Y01286*
X01111*
X01105Y01284*
X011Y01279*
X01098Y01273*
Y01266*
X011Y0126*
X01105Y01255*
X01111Y01253*
X01118*
X01124Y01255*
X01124Y01255*
X01205*
X01211Y01247*
X01212Y01242*
X01215Y01238*
Y01237*
X01212Y01233*
X01211Y01228*
X01212Y01223*
X01215Y01219*
Y01217*
X01212Y01213*
X01211Y01208*
X01212Y01203*
X01214Y01201*
X01214Y01199*
X0121Y01194*
X0121Y01193*
X01235*
Y01183*
X0121*
X0121Y01183*
X01213Y01179*
X0121Y01175*
X0121Y01174*
X01235*
Y01164*
X0121*
X0121Y01163*
X01214Y01158*
X01214Y01156*
X01212Y01154*
X01211Y01149*
X01212Y01144*
X01215Y0114*
Y01139*
X01212Y01134*
X01211Y01129*
X01212Y01124*
X01215Y0112*
X01212Y01115*
X01211Y0111*
X01212Y01105*
X01215Y011*
Y01099*
X01212Y01095*
X01211Y0109*
X01212Y01085*
X01215Y01081*
Y0108*
X01212Y01075*
X01211Y0107*
X01212Y01065*
X01215Y0106*
X01212Y01056*
X01211Y01051*
X01212Y01046*
X01215Y01041*
Y0104*
X01212Y01036*
X01211Y01031*
X01212Y01026*
X01215Y01021*
X01212Y01016*
X01211Y01011*
X01212Y01006*
X01215Y01002*
Y01001*
X01212Y00997*
X01211Y00992*
X01212Y00987*
X01215Y00982*
X01212Y00977*
X01211Y00972*
X01212Y00967*
X01213Y00966*
X01209Y00958*
X01132*
X01127Y00957*
X01123Y00955*
X0112Y00951*
X01116*
X0111Y00949*
X01105Y00944*
X01103Y00938*
Y00931*
X01105Y00925*
X0111Y00921*
X0111Y00919*
X01108Y00913*
X01075*
Y00923*
X01031*
Y00975*
X01031Y00976*
Y00983*
X01029Y00989*
X01024Y00994*
X01018Y00996*
X01011*
X01005Y00994*
X01Y00989*
X00998Y00983*
Y00976*
X00998Y00975*
Y00923*
X00974*
X00856Y01041*
Y01178*
X00886*
Y01176*
X00979*
Y01193*
X0098Y01193*
X01116Y01329*
X0125*
Y0131*
G37*
G36*
X01653Y01208D02*
X01654Y01203D01*
X01657Y01199*
X01661Y01197*
X01665Y01196*
X01677*
X01677Y01195*
X01673Y01187*
X01665*
X0166Y01186*
X01655Y01183*
X01652Y01178*
X01651Y01172*
Y01165*
X0168*
Y0116*
X01685*
Y01132*
X01694*
X01698Y01128*
Y00833*
X017Y00826*
X01703Y00821*
X01723Y00801*
Y00774*
X01736*
Y00645*
X01736Y00645*
X01732Y00642*
X01729Y00638*
X01729Y00636*
X01645*
X01632Y0065*
X01631Y00652*
X01627Y00659*
X0162Y00663*
X01613Y00665*
X01609*
Y00674*
X01613*
X0162Y00676*
X01627Y0068*
X01631Y00687*
X01633Y00695*
X01631Y00702*
X01627Y00709*
X0162Y00713*
X01613Y00715*
X01586*
X01585Y00718*
X01583Y00722*
Y00722*
X01552Y00752*
X01542Y00762*
Y00839*
X01541Y00844*
X0154Y00845*
X01544Y00852*
X01544Y00853*
X01548*
X01554Y00855*
X01559Y0086*
X01561Y00866*
Y00873*
X01559Y00879*
X01554Y00884*
X01551Y00885*
Y00915*
X01557Y00921*
X01562Y00922*
X01566Y00925*
X01568Y00927*
X01576Y00925*
Y00889*
X01575Y00889*
X01573Y00883*
Y00876*
X01575Y0087*
X0158Y00865*
X01586Y00863*
X01593*
X01599Y00865*
X01601Y00865*
X01603Y00862*
X01643Y00823*
Y00821*
X01645Y00815*
X0165Y0081*
X01656Y00808*
X01663*
X01669Y0081*
X01674Y00815*
X01676Y00821*
Y00828*
X01674Y00834*
X01669Y00839*
X01663Y00841*
X01661*
X01625Y00877*
Y00975*
X01633Y00978*
X01648Y00963*
Y00961*
X0165Y00955*
X01655Y0095*
X01661Y00948*
X01668*
X01674Y0095*
X01679Y00955*
X01681Y00961*
Y00968*
X01679Y00974*
X01674Y00979*
X01668Y00981*
X01666*
X01643Y01004*
Y01006*
X01642Y01011*
X0164Y01015*
Y01024*
X01639Y01029*
X01636Y01033*
X01612Y01057*
Y01057*
X01617Y0106*
X0162Y0106*
X01648Y01033*
Y01031*
X0165Y01025*
X01655Y0102*
X01661Y01018*
X01668*
X01674Y0102*
X01679Y01025*
X01681Y01031*
Y01038*
X01679Y01044*
X01674Y01049*
X01668Y01051*
X01666*
X01618Y01099*
X01614Y01102*
X01614Y01102*
X01608Y0111*
X01614Y01116*
X01634*
X01653Y01098*
Y01096*
X01655Y0109*
X0166Y01085*
X01666Y01083*
X01673*
X01679Y01085*
X01684Y0109*
X01686Y01096*
Y01103*
X01684Y01109*
X01679Y01114*
X01673Y01116*
X01671*
X01663Y01125*
X01665Y01129*
X01667Y01132*
X01675*
Y01155*
X01651*
Y01147*
X01647Y01144*
X01644Y01142*
X0164Y01142*
X01614*
X01608Y01149*
X01607Y01154*
X01605Y01156*
X01605Y01158*
X01609Y01163*
X01609Y01164*
X01584*
Y01174*
X01609*
X01609Y01175*
X01606Y01179*
X01609Y01183*
X01609Y01183*
X01584*
Y01193*
X01609*
X01609Y01194*
X01606Y01198*
X01609Y01202*
X0161Y01208*
X01616Y01216*
X01653*
Y01208*
G37*
G36*
X01424Y0092D02*
X01425Y0092D01*
X01429Y00923*
X01433Y0092*
X01439Y00919*
X01447Y00913*
Y00824*
X01448Y00819*
X0145Y00817*
Y00804*
X01442Y00799*
X01439Y00801*
X01436Y00805*
X01436Y00806*
Y00813*
X01434Y00819*
X01429Y00824*
X01423Y00826*
X01422*
X01393Y00855*
Y00913*
X014Y00919*
X01405Y0092*
X0141Y00923*
X01414Y0092*
X01414Y0092*
Y00945*
X01424*
Y0092*
G37*
G36*
X01288Y00907D02*
Y00714D01*
X01282Y00713*
X01276Y00709*
X01271Y00702*
X0127Y00696*
X01265Y00694*
X01262Y00693*
X01243Y00713*
Y00729*
X01244Y0073*
X01246Y00736*
Y00743*
X01244Y00749*
X01239Y00754*
X01233Y00756*
X01226*
X0122Y00754*
X01215Y00749*
X01213Y00743*
Y00736*
X01215Y0073*
X01214Y00729*
X01204Y00727*
X01144Y00787*
X01144Y00789*
X01139Y00794*
X01133Y00796*
X01126*
X0112Y00794*
X01115Y00789*
X01113Y00783*
Y00776*
X01115Y0077*
X0112Y00765*
X01122Y00765*
X0119Y00697*
Y00658*
X01183Y00653*
X01181Y00653*
X01146Y00688*
Y00703*
X01145Y00708*
X01142Y00712*
X01138Y00715*
X01134Y00715*
X01116*
X01031Y00801*
Y00817*
X01045*
Y00842*
X0105*
Y00847*
X01077*
Y00868*
X01075*
X01075Y00876*
Y00886*
X01252*
X01257Y00887*
X01261Y0089*
X01281Y0091*
X01288Y00907*
G37*
%LNmain-4*%
%LPC*%
G36*
X00979Y01163D02*
X00886D01*
Y01126*
X00979*
Y01131*
X01024*
X01025Y0113*
X01031Y01128*
X01038*
X01044Y0113*
X01049Y01135*
X01051Y01141*
Y01148*
X01049Y01154*
X01044Y01159*
X01038Y01161*
X01031*
X01025Y01159*
X01024Y01158*
X00979*
Y01163*
G37*
G36*
Y01113D02*
X00886D01*
Y01076*
X00979*
Y01081*
X01024*
X01025Y0108*
X01031Y01078*
X01038*
X01044Y0108*
X01049Y01085*
X01051Y01091*
Y01098*
X01049Y01104*
X01044Y01109*
X01038Y01111*
X01031*
X01025Y01109*
X01024Y01108*
X00979*
Y01113*
G37*
G36*
Y01063D02*
X00886D01*
Y01026*
X00979*
Y01032*
X01167*
X01168Y01032*
Y01031*
X0117Y01025*
X01175Y0102*
X01181Y01018*
X01188*
X01194Y0102*
X01199Y01025*
X01201Y01031*
Y01038*
X01199Y01044*
X01194Y01049*
X01188Y01051*
X01182*
X0118Y01053*
X01176Y01056*
X01172Y01057*
X00979*
Y01063*
G37*
G36*
X0161Y00805D02*
Y0079D01*
X01625*
X01622Y00796*
X01616Y00802*
X0161Y00805*
G37*
G36*
X016D02*
X01593Y00802D01*
X01587Y00796*
X01584Y0079*
X016*
Y00805*
G37*
G36*
X01625Y0078D02*
X0161D01*
Y00764*
X01616Y00767*
X01622Y00773*
X01625Y0078*
G37*
G36*
X016D02*
X01584D01*
X01587Y00773*
X01593Y00767*
X016Y00764*
Y0078*
G37*
G36*
X0119Y0086D02*
Y00845D01*
X01205*
X01202Y00851*
X01196Y00857*
X0119Y0086*
G37*
G36*
X0118D02*
X01173Y00857D01*
X01167Y00851*
X01164Y00845*
X0118*
Y0086*
G37*
G36*
X01205Y00835D02*
X0119D01*
Y00819*
X01196Y00822*
X01202Y00828*
X01205Y00835*
G37*
G36*
X0118D02*
X01164D01*
X01167Y00828*
X01173Y00822*
X0118Y00819*
Y00835*
G37*
G36*
X01077Y00837D02*
X01055D01*
Y00817*
X01077*
Y00837*
G37*
%LNmain-5*%
%LPD*%
G36*
X02161Y01104D02*
Y01071D01*
X02104*
Y01128*
X02137*
X02161Y01104*
G37*
G36*
X00572Y00584D02*
Y00422D01*
X00563*
X00559Y00421*
X00556Y00419*
X00554Y00416*
X00553Y00412*
Y00392*
X00554Y00388*
X00556Y00385*
X00555Y00383*
X00555Y00383*
X00552Y00379*
X00551Y00375*
Y0037*
X00588*
Y0036*
X00551*
Y00354*
X00552Y00351*
X0055Y00348*
X00547Y00343*
X00498*
X00498Y00343*
X00495Y00351*
X00495Y00351*
X00496Y00353*
X00497Y00358*
Y0036*
X00475*
Y00365*
X0047*
Y00385*
X00465*
X00461Y00384*
X00458Y00388*
X00369Y00478*
X00372Y00485*
X00393*
Y00483*
X00409*
Y00505*
Y00526*
X00393*
Y00524*
X00361*
Y00524*
X00337*
Y00536*
Y00576*
Y00615*
X00371*
Y00605*
X00403*
Y00603*
X00419*
Y00625*
Y00646*
X00403*
Y00644*
X00371*
Y00641*
X00337*
Y00658*
X00497*
X00572Y00584*
G37*
%LNmain-6*%
%LPC*%
G36*
X00444Y00646D02*
X00429D01*
Y0063*
X00444*
Y00646*
G37*
G36*
Y0062D02*
X00429D01*
Y00603*
X00444*
Y0062*
G37*
G36*
X0051Y0053D02*
Y00515D01*
X00525*
X00522Y00521*
X00516Y00527*
X0051Y0053*
G37*
G36*
X005D02*
X00493Y00527D01*
X00487Y00521*
X00484Y00515*
X005*
Y0053*
G37*
G36*
X00434Y00526D02*
X00419D01*
Y0051*
X00434*
Y00526*
G37*
G36*
X00525Y00505D02*
X0051D01*
Y00489*
X00516Y00492*
X00522Y00498*
X00525Y00505*
G37*
G36*
X005D02*
X00484D01*
X00487Y00498*
X00493Y00492*
X005Y00489*
Y00505*
G37*
G36*
X00434Y005D02*
X00419D01*
Y00483*
X00434*
Y005*
G37*
G36*
X00484Y00385D02*
X0048D01*
Y0037*
X00497*
Y00372*
X00496Y00377*
X00493Y00381*
X00489Y00384*
X00484Y00385*
G37*
%LNmain-7*%
%LPD*%
G54D10*
X01274Y01169D02*
X0128Y01163D01*
X01235Y01169D02*
X01274D01*
X0141Y0112D02*
X01419Y0111D01*
Y00945D02*
Y0111D01*
Y00945D02*
X01439D01*
X014D02*
X01419D01*
X01584Y01188D02*
Y01208D01*
X01301Y01228D02*
X01323Y01206D01*
X01301Y01228D02*
Y01294D01*
X00147Y01126D02*
X00173D01*
X01182Y01035D02*
X01185D01*
X00933Y01045D02*
X01172D01*
X01182Y01035*
X01123Y01268D02*
X01124Y01267D01*
X01235*
X01115Y0127D02*
X01116Y01268D01*
X01123*
X01561Y01395D02*
X0157D01*
X01507Y01341D02*
X01561Y01395D01*
X01321Y01294D02*
Y01305D01*
X01673Y01228D02*
X0168Y01221D01*
X01584Y01228D02*
X01673D01*
X01584D02*
Y01247D01*
X01638Y00537D02*
Y0062D01*
X01622Y00521D02*
X01638Y00537D01*
X01509Y00521D02*
X01622D01*
X01518Y00852D02*
Y00945D01*
Y00852D02*
X0153Y00839D01*
X01464Y00766D02*
Y00773D01*
X0153Y00757D02*
Y00839D01*
X01464Y00766D02*
X01486Y00744D01*
X01459Y00824D02*
X01462Y00821D01*
X01459Y00824D02*
Y00945D01*
X01462Y00776D02*
X01464Y00773D01*
X01462Y00776D02*
Y00821D01*
X01574Y00702D02*
Y00713D01*
Y00702D02*
X01582Y00695D01*
X01544Y00744D02*
X01574Y00713D01*
X01582Y00695D02*
X01593D01*
X0153Y00757D02*
X01544Y00744D01*
X01486D02*
X01544D01*
X01435Y00595D02*
X01509Y00521D01*
X01289Y01341D02*
X01318Y01311D01*
X01289Y01341D02*
X01507D01*
X01257D02*
X01289D01*
X01318Y01308D02*
Y01311D01*
X01262Y01294D02*
Y01336D01*
X01257Y01341D02*
X01262Y01336D01*
X01111Y01341D02*
X01257D01*
X00972Y01202D02*
X01111Y01341D01*
X01318Y01308D02*
X01321Y01305D01*
X0094Y01202D02*
X00972D01*
X00933Y01195D02*
X0094Y01202D01*
X0131Y00595D02*
X01435D01*
X01588Y00881D02*
X0159Y0088D01*
X01588Y00881D02*
Y00971D01*
X01587Y00972D02*
X01588Y00971D01*
X01584Y00972D02*
X01587D01*
G54D16*
X00306Y00589D03*
Y00609D03*
Y00629D03*
Y00648D03*
Y0057D03*
Y0055D03*
Y0053D03*
Y00511D03*
G54D17*
X00306Y00674D03*
Y00706D03*
Y00485D03*
Y00454D03*
G54D18*
X01262Y00945D03*
X01282D03*
X01301D03*
X01321D03*
X01341D03*
X0136D03*
X0138D03*
X014D03*
X01419D03*
X01439D03*
X01459D03*
X01478D03*
X01498D03*
X01518D03*
X01537D03*
X01557D03*
Y01294D03*
X01537D03*
X01518D03*
X01498D03*
X01478D03*
X01459D03*
X01439D03*
X01419D03*
X014D03*
X0138D03*
X0136D03*
X01341D03*
X01321D03*
X01301D03*
X01282D03*
X01262D03*
G54D19*
X01584Y00972D03*
Y00992D03*
Y01011D03*
Y01031D03*
Y01051D03*
Y0107D03*
Y0109D03*
Y0111D03*
Y01129D03*
Y01149D03*
Y01169D03*
Y01188D03*
Y01208D03*
Y01228D03*
Y01247D03*
Y01267D03*
X01235D03*
Y01247D03*
Y01228D03*
Y01208D03*
Y01188D03*
Y01169D03*
Y01149D03*
Y01129D03*
Y0111D03*
Y0109D03*
Y0107D03*
Y01051D03*
Y01031D03*
Y01011D03*
Y00992D03*
Y00972D03*
G54D20*
X0141Y0112D03*
G54D21*
X0141Y01414D03*
X01305Y0141D03*
X0112Y0069D03*
X01755Y00559D03*
X0184D03*
X0112Y00629D03*
X01035Y0069D03*
X0168Y0116D03*
X0063Y01275D03*
X01305Y01471D03*
X0141Y01475D03*
X0168Y01221D03*
X01755Y0062D03*
X0184D03*
X0063Y01214D03*
X01035Y00629D03*
G54D22*
X013Y00225D03*
Y00189D03*
X0095Y00184D03*
X00775Y00369D03*
X00475Y00365D03*
X0095Y0022D03*
X00775Y00405D03*
X00475Y0033D03*
G54D23*
X01195Y00222D03*
X01094Y00185D03*
Y00222D03*
Y00147D03*
X01195D03*
G54D24*
X0105Y00842D03*
X00977Y009D03*
Y00842D03*
X0105Y009D03*
G54D25*
X00588Y00365D03*
Y00402D03*
Y00327D03*
X00681D03*
Y00402D03*
G54D26*
X0131Y00545D03*
X01593Y00695D03*
Y00645D03*
X0131Y00595D03*
X01593Y00545D03*
X0131Y00695D03*
Y00645D03*
X01593Y00595D03*
G54D27*
X0016Y0105D03*
G54D28*
X00173Y00974D03*
X00147D03*
X00122D03*
X00173Y01126D03*
X00147D03*
X00198Y00974D03*
Y01126D03*
X00122D03*
G54D29*
X00084Y01037D03*
Y01063D03*
Y01088D03*
Y01012D03*
X00236D03*
Y01037D03*
Y01063D03*
Y01088D03*
G54D30*
X02249Y01256D03*
X0186D03*
Y00787D03*
X02249D03*
G54D31*
X02055Y01022D03*
Y011D03*
X01977D03*
Y01022D03*
Y00944D03*
X02055D03*
X02132D03*
Y01022D03*
G54D32*
X02247Y01211D03*
Y01179D03*
Y01148D03*
Y01116D03*
Y01085D03*
Y01053D03*
Y01022D03*
Y0099D03*
Y00959D03*
Y00927D03*
Y00896D03*
Y00864D03*
Y00833D03*
X01862Y01148D03*
Y01211D03*
Y01179D03*
Y01116D03*
Y01085D03*
Y01053D03*
Y01022D03*
Y0099D03*
Y00959D03*
Y00927D03*
Y00896D03*
Y00864D03*
Y00833D03*
G54D33*
X01897Y01254D03*
X0218D03*
X02212D03*
X02149D03*
X02117D03*
X02086D03*
X02055D03*
X02023D03*
X01992D03*
X0196D03*
X01929D03*
X01897Y00789D03*
X01929D03*
X0196D03*
X01992D03*
X02023D03*
X02055D03*
X02086D03*
X02117D03*
X02149D03*
X0218D03*
X02212D03*
G54D34*
X00414Y00505D03*
X00424Y00625D03*
X0039D03*
X0038Y00505D03*
G54D35*
X00747Y01045D03*
Y01095D03*
X00933Y01195D03*
X00747D03*
X00933Y01145D03*
Y01095D03*
Y01045D03*
X00747Y01145D03*
G54D36*
X02209Y00175D03*
X0214Y00214D03*
X02209D03*
X0214Y00175D03*
G54D37*
X01498Y01395D03*
X00215Y01305D03*
X0224Y0137D03*
X02178D03*
X0156Y01395D03*
X00154Y01305D03*
G54D38*
X0043Y01204D03*
Y0117D03*
G54D39*
X0193Y0137D03*
X0018Y0121D03*
X00144D03*
X01965Y0137D03*
G54D40*
X00399Y0104D03*
X00365D03*
G54D41*
X00409Y0093D03*
X0034D03*
G54D42*
X02215Y0144D03*
X0218D03*
G54D43*
X021Y01375D03*
X0136Y00085D03*
X01421D03*
X02039Y01375D03*
G54D44*
X0175Y00799D03*
X0095Y00625D03*
Y00686D03*
X0175Y0086D03*
G54D45*
X01962Y00135D03*
X0202D03*
X01967Y00265D03*
X02025D03*
G54D46*
X00395Y0111D03*
X00344D03*
G54D88*
X02132Y011D03*
G54D89*
X01571Y00087D02*
Y00342D01*
X00775Y00655D02*
X00977Y00857D01*
X00147Y01037D02*
X0016Y0105D01*
X00084Y01037D02*
X00147D01*
X00284Y0041D02*
X00284D01*
X00295Y0042*
Y0045*
X00299Y00454*
X00306*
X02055Y011D02*
X02132D01*
X01977Y01022D02*
X02055D01*
X01015Y00794D02*
Y0098D01*
Y00794D02*
X01118Y0069D01*
X0112*
X01407Y01412D02*
X0141Y01414D01*
X01307Y01412D02*
X01407D01*
X01305Y0141D02*
X01307Y01412D01*
X01145Y0141D02*
X01305D01*
X01206Y00225D02*
X013D01*
X01204Y00222D02*
X01206Y00225D01*
X01195Y00222D02*
Y0042D01*
Y00222D02*
X01204D01*
X01121Y0069D02*
X01185Y00626D01*
Y0043D02*
X01195Y0042D01*
X01185Y0043D02*
Y00626D01*
X0218Y0144D02*
Y0148D01*
X02179Y01439D02*
X0218Y0144D01*
X0216Y015D02*
X0218Y0148D01*
X02179Y0137D02*
Y01439D01*
X0183Y015D02*
X0216D01*
X0176Y0143D02*
X0183Y015D01*
X0176Y01301D02*
Y014D01*
X02178Y0137D02*
X02179Y0137D01*
X02178Y01368D02*
Y0137D01*
X02176Y01372D02*
X02178Y0137D01*
X02149Y01254D02*
Y01339D01*
X02103Y01372D02*
X02176D01*
X021Y01375D02*
X02103Y01372D01*
X02149Y01339D02*
X02178Y01368D01*
X0176Y014D02*
Y0143D01*
X01755Y01395D02*
X0176Y014D01*
X0157Y01395D02*
X01755D01*
X0169Y01231D02*
X0176Y01301D01*
X0169Y01212D02*
Y01231D01*
Y01212D02*
X01715Y01187D01*
X01748Y00799D02*
X0175D01*
X01752Y00796*
X01715Y00833D02*
X01748Y00799D01*
X01752Y00623D02*
Y00796D01*
X01715Y00833D02*
Y01187D01*
X01593Y00645D02*
X01614D01*
X01755Y0062D02*
X0184D01*
X01752Y00623D02*
X01755Y0062D01*
X01638D02*
X01755D01*
X01614Y00645D02*
X01638Y0062D01*
X01593Y00645D02*
Y00695D01*
X0084Y01195D02*
X00933D01*
X00747D02*
X0084D01*
Y01035D02*
Y01195D01*
X00154Y01258D02*
Y01305D01*
X00152Y0126D02*
X00417D01*
X00152D02*
X00154Y01258D01*
X00417Y0126D02*
X00462Y01214D01*
X00144Y01248D02*
X00154Y01258D01*
X00144Y0121D02*
Y01248D01*
X0063Y01214D02*
X00699D01*
X00719Y01195*
X00462Y01214D02*
X0063D01*
X00719Y01195D02*
X00747D01*
X00144Y01208D02*
X00147Y01205D01*
Y01126D02*
Y01205D01*
X01115Y0021D02*
X0112D01*
X01103Y00222D02*
X01115Y0021D01*
X01021Y00222D02*
X01094D01*
X01103*
X0112Y0021D02*
X01129Y00201D01*
Y00168D02*
Y00201D01*
X01115Y00159D02*
X0112D01*
X01166Y00085D02*
X0136D01*
X0112Y00159D02*
X01129Y00168D01*
X01103Y00147D02*
X01115Y00159D01*
X01094Y00147D02*
X01103D01*
X01166Y00085*
X00975Y009D02*
X00977D01*
X0084Y01035D02*
X00975Y009D01*
X00977Y00857D02*
Y009D01*
X00775Y00655D02*
X00787D01*
X00817Y00625*
X01032Y00627D02*
X01035Y00629D01*
X00952Y00627D02*
X01032D01*
X0095Y0022D02*
Y00625D01*
X01018Y0022D02*
X01021Y00222D01*
X0095Y0022D02*
X01018D01*
X0095Y00625D02*
X00952Y00627D01*
X00817Y00625D02*
X0095D01*
X0124Y0051D02*
Y00625D01*
Y0051D02*
X01407Y00342D01*
X01571*
X01206Y00658D02*
X0124Y00625D01*
X01206Y00658D02*
Y00703D01*
X0113Y0078D02*
X01206Y00703D01*
X0113Y0078D02*
D01*
X01569Y00085D02*
X01571Y00087D01*
X01421Y00085D02*
X01569D01*
X01961Y00135D02*
X01962D01*
X01949Y00147D02*
X01961Y00135D01*
X01949Y00147D02*
Y00147D01*
X0187Y00227D02*
X01949Y00147D01*
X0187Y00227D02*
Y0038D01*
X01966Y00265D02*
X01967D01*
X01954Y00277D02*
X01966Y00265D01*
X01954Y00277D02*
Y00277D01*
X0195Y00282D02*
X01954Y00277D01*
X0195Y00282D02*
Y00425D01*
X00395Y0111D02*
X00401Y01115D01*
Y01142*
X00428Y0117*
X0043*
X00719Y01145D02*
X00747D01*
X00684Y0111D02*
X00719Y01145D01*
X00395Y0111D02*
X00684D01*
X00588Y00402D02*
Y0059D01*
X00504Y00674D02*
X00588Y0059D01*
X00306Y00674D02*
X00504D01*
X00306Y00485D02*
X0031Y00481D01*
X00343*
X00473Y0033D02*
X00475D01*
X00463Y00339D02*
X00473Y0033D01*
X00458Y00339D02*
X00463D01*
X00447Y0035D02*
X00458Y00339D01*
X00447Y0035D02*
Y00377D01*
X00343Y00481D02*
X00447Y00377D01*
X0175Y0086D02*
X01754Y00864D01*
X01862*
X01965Y0137D02*
Y01371D01*
X01968Y01375*
X02039*
X01992Y01254D02*
Y013D01*
X01965Y01327D02*
X01992Y013D01*
X01965Y01327D02*
Y0137D01*
X0202Y00135D02*
X02093D01*
X02133Y00175*
X0214*
X02025Y00265D02*
X02025D01*
X02075Y00214*
X0214*
X00775Y00405D02*
Y00555D01*
X00773Y00405D02*
X00775D01*
X0077Y00402D02*
X00773Y00405D01*
X00681Y00402D02*
X0077D01*
X00588D02*
X00592Y00398D01*
X00612D02*
X00616Y00395D01*
X00621D02*
X0063Y00385D01*
X00616Y00395D02*
X00621D01*
X00592Y00398D02*
X00612D01*
X0063Y00347D02*
Y00385D01*
X00588Y00327D02*
X00592Y00331D01*
X00614*
X0063Y00347*
X00476Y0033D02*
X00479Y00327D01*
X00588*
G54D90*
X01545Y0087D02*
Y00872D01*
X01537Y00879D02*
X01545Y00872D01*
X01537Y00879D02*
Y00945D01*
X01478Y00783D02*
Y00945D01*
Y00783D02*
X01485Y00777D01*
X01235Y01247D02*
Y01267D01*
X01485Y00775D02*
Y00777D01*
X01306Y00266D02*
X01377Y00337D01*
X01306Y00229D02*
Y00266D01*
X01301Y00225D02*
X01306Y00229D01*
X013Y00225D02*
X01301D01*
X01132Y00945D02*
X01262D01*
X01122Y00935D02*
X01132Y00945D01*
X0112Y00935D02*
X01122D01*
X01411Y00757D02*
X01421D01*
X01341Y00828D02*
X01411Y00757D01*
X01341Y00828D02*
Y00945D01*
X01421Y00757D02*
X01434Y00745D01*
X01437*
X01442Y0074*
X01445*
Y00615D02*
X01515Y00545D01*
X01593*
X00933Y01095D02*
X01035D01*
X01612Y00872D02*
Y00999D01*
Y00872D02*
X0166Y00825D01*
X01498Y00843D02*
X0151Y00832D01*
Y0083D02*
Y00832D01*
X01498Y00843D02*
Y00945D01*
X0123Y00707D02*
X01292Y00645D01*
X0123Y00707D02*
Y0074D01*
X0105Y009D02*
X01252D01*
X01281Y00945D02*
X01282Y00945D01*
X01281Y00929D02*
Y00945D01*
X01252Y009D02*
X01281Y00929D01*
X0095Y00737D02*
X00955Y00742D01*
Y00745*
X0095Y00686D02*
Y00737D01*
X0142Y0081D02*
Y0081D01*
X0138Y0085D02*
X0142Y0081D01*
X0138Y0085D02*
Y00945D01*
X0136Y00841D02*
Y00945D01*
Y00841D02*
X01375Y00827D01*
Y00825D02*
Y00827D01*
X01321Y00815D02*
X01452Y00684D01*
X01321Y00815D02*
Y00945D01*
X01301Y00701D02*
X01308Y00695D01*
X01301Y00701D02*
Y00945D01*
X01308Y00695D02*
X0131D01*
X00933Y01145D02*
X01035D01*
X01484Y00684D02*
X01573Y00595D01*
X01452Y00684D02*
X01484D01*
X01292Y00645D02*
X0131D01*
X01573Y00595D02*
X01593D01*
X016Y01011D02*
X01612Y00999D01*
X01584Y01011D02*
X016D01*
X01584Y01011D02*
X01584Y01011D01*
X0163Y00999D02*
X01665Y00965D01*
X0163Y00999D02*
Y01006D01*
X01627Y0101D02*
X0163Y01006D01*
X01627Y0101D02*
Y01024D01*
X016Y01051D02*
X01627Y01024D01*
X01584Y01051D02*
X016D01*
X01584Y01051D02*
X01584Y01051D01*
X01584Y01129D02*
X0164D01*
X0167Y011*
X01584Y0109D02*
X01584Y0109D01*
X01609*
X01665Y01035*
X02015Y007D02*
X02055Y0074D01*
Y00789*
X02088Y00681D02*
X0209Y0068D01*
X02088Y00681D02*
Y00788D01*
X02086Y00789D02*
X02088Y00788D01*
X00205Y0093D02*
X0034D01*
X00198Y00937D02*
X00205Y0093D01*
X00198Y00937D02*
Y00974D01*
X00236Y01088D02*
X00246D01*
X00268Y0111*
X00344*
X00236Y01037D02*
X00246D01*
X00249Y0104*
X00365*
X0038Y00505D02*
Y00505D01*
X00374Y00511D02*
X0038Y00505D01*
X00306Y00511D02*
X00374D01*
X00386Y00628D02*
X0039Y00625D01*
X00307Y00628D02*
X00386D01*
X00306Y00629D02*
X00307Y00628D01*
G54D91*
X00284Y0075D03*
Y0041D03*
G54D92*
X0012Y0075D03*
Y0041D03*
G54D93*
X00264Y00693D03*
Y00466D03*
G54D94*
X01748Y00342D03*
Y00087D03*
X01571Y00342D03*
G54D95*
X00775Y00655D03*
G54D96*
X01571Y00087D03*
G54D97*
X02415Y0145D03*
X0243Y00215D03*
X00235Y00175D03*
X0019Y0148D03*
G54D98*
X00775Y00555D03*
G54D99*
X01435Y0078D03*
X01605Y00785D03*
X00505Y0051D03*
X0192Y01195D03*
X0196Y0086D03*
X0216Y0117D03*
X02275Y00615D03*
X01075Y00495D03*
X01185Y0084D03*
G54D100*
X01015Y0098D03*
X01185Y01035D03*
X01545Y0087D03*
X01485Y00775D03*
X01377Y00337D03*
X01145Y0141D03*
X01115Y0127D03*
X0112Y00935D03*
X0113Y0078D03*
X01445Y0074D03*
Y00615D03*
X0159Y0088D03*
X01035Y01095D03*
X0151Y0083D03*
X0123Y0074D03*
X00955Y00745D03*
X0142Y0081D03*
X01375Y00825D03*
X01035Y01145D03*
X0166Y00825D03*
X0187Y0038D03*
X01665Y00965D03*
X0195Y00425D03*
X0167Y011D03*
X01665Y01035D03*
X02015Y007D03*
X0209Y0068D03*
G54D101*
X0128Y0099D03*
Y01033D03*
Y01076D03*
Y0112D03*
Y01163D03*
Y01206D03*
Y01249D03*
X01323Y0099D03*
Y01033D03*
Y01076D03*
Y0112D03*
Y01163D03*
Y01206D03*
Y01249D03*
X01366Y0099D03*
Y01033D03*
Y01076D03*
Y0112D03*
Y01163D03*
Y01206D03*
Y01249D03*
X0141Y0099D03*
Y01033D03*
Y01076D03*
Y0112D03*
Y01163D03*
Y01206D03*
Y01249D03*
X01453Y0099D03*
Y01033D03*
Y01076D03*
Y0112D03*
Y01163D03*
Y01206D03*
Y01249D03*
X01496Y0099D03*
Y01033D03*
Y01076D03*
Y0112D03*
Y01163D03*
Y01206D03*
Y01249D03*
X01539Y0099D03*
Y01033D03*
Y01076D03*
Y0112D03*
Y01163D03*
Y01206D03*
Y01249D03*
M02*